<svg id="レイヤー_1" data-name="レイヤー 1" xmlns="http://www.w3.org/2000/svg" viewBox="0 0 52.56 34.68"><defs><style>.cls-1{fill:#fff;}</style></defs><path d="M30.72,27.36v4.76h4V27.36Zm8.35-2h-6.4v4h6.4Zm-2-16.72V27.36h4V8.64Zm-3.4,2h5.85v-4H33.67ZM31.72,5V8.64h4V5ZM39.56.81A17.67,17.67,0,0,1,33.31,3L34,7a21.24,21.24,0,0,0,7.59-2.74ZM45,.52H40.59v4H45Zm2,26.84V2.52H43V27.36Zm3.56-2H45v4h5.56Zm2,6.76V27.36h-4v4.76Zm-19.84,2H50.51v-4H32.67Zm0-6.76v-2h-2v2Zm6.4,0v2h2v-2Zm0-18.72h2v-2h-2Zm-5.4,0h-2v2h2Zm0-3.64-.36-2-1.64.31V5Zm6.87-2.48v-2H40l-.48.29Zm4.41,0h2v-2H45Zm0,24.84H43v2h2Zm5.56,0h2v-2h-2Zm0,4.76v2h2v-2Zm-17.84,0h-2v2h2ZM14.48,17.2c0,4.08-.47,6.44-1.07,7.71a2.34,2.34,0,0,1-.73,1,1,1,0,0,1-.64.18v4a5,5,0,0,0,3-.89,6.37,6.37,0,0,0,2-2.59c1-2.09,1.45-5.17,1.45-9.41ZM12,8.52a1.2,1.2,0,0,1,.67.17,2.2,2.2,0,0,1,.71.94c.59,1.21,1.06,3.51,1.06,7.57h4C18.48,13,18,9.94,17,7.89a6,6,0,0,0-2.1-2.53A5.06,5.06,0,0,0,12,4.52ZM9.56,17.2c0-4.06.48-6.35,1.08-7.57a2.19,2.19,0,0,1,.72-.93A1.19,1.19,0,0,1,12,8.52v-4a5.25,5.25,0,0,0-2.88.83A6.28,6.28,0,0,0,7,7.88C6,9.93,5.56,13,5.56,17.2ZM12,26.08a1.07,1.07,0,0,1-.65-.18,2.37,2.37,0,0,1-.74-1c-.61-1.27-1-3.63-1-7.7h-4c0,4.25.48,7.33,1.47,9.42a6.44,6.44,0,0,0,2.1,2.58,5,5,0,0,0,2.91.88ZM0,17.2c0,5.34,1,9.66,3.1,12.7A10.41,10.41,0,0,0,12,34.68v-4a6.47,6.47,0,0,1-5.63-3C5,25.52,4,22.1,4,17.2ZM12,0A10.48,10.48,0,0,0,3.11,4.63C1,7.62,0,11.88,0,17.2H4C4,12.32,5,9,6.4,6.92A6.48,6.48,0,0,1,12,4ZM24,17.2c0-5.32-1-9.58-3.11-12.56A10.45,10.45,0,0,0,12,0V4a6.44,6.44,0,0,1,5.61,2.91C19.08,9,20,12.32,20,17.2ZM12,34.68a10.42,10.42,0,0,0,9-4.78c2-3,3-7.36,3-12.7H20c0,4.9-1,8.32-2.41,10.46a6.39,6.39,0,0,1-5.59,3Z" transform="translate(0 0)"/><path class="cls-1" d="M32.67,32.12H50.51V27.36H45V2.52H40.59A19.48,19.48,0,0,1,33.67,5V8.64h5.4V27.36h-6.4ZM12,28.08c-2.56,0-4.48-2.56-4.48-10.88S9.48,6.52,12,6.52s4.44,2.4,4.44,10.68S14.6,28.08,12,28.08Zm0,4.6c6,0,10-5.24,10-15.48S18,2,12,2,2,7,2,17.2,6,32.68,12,32.68Z" transform="translate(0 0)"/><ellipse cx="12" cy="27.09" rx="0.29" ry="1"/><rect x="50.31" y="32.12" width="0.39" height="2"/><ellipse cx="40.43" cy="2.09" rx="0.54" ry="0.44"/></svg>