<svg id="レイヤー_1" data-name="レイヤー 1" xmlns="http://www.w3.org/2000/svg" viewBox="0 0 53 34.68"><defs><style>.cls-1{fill:#fff;}</style></defs><path d="M51,30.12H30.83v4H51Zm-2-3v5h4v-5Zm-4.35,2H51v-4H44.6Zm-4.6.35c1.5-.16,3.35-.35,4.62-.35v-4a49.24,49.24,0,0,0-5,.37Zm7.61-18.39A13.64,13.64,0,0,1,45,18.26a48,48,0,0,1-6.68,7.83L41.11,29a51.71,51.71,0,0,0,7.25-8.52,17.57,17.57,0,0,0,3.23-9.35ZM40.23,4a7.49,7.49,0,0,1,5.36,1.91,7.1,7.1,0,0,1,2,5.2h4a11.1,11.1,0,0,0-3.18-8,11.48,11.48,0,0,0-8.14-3Zm-7.9,3.77a13,13,0,0,1,3.73-2.86A9.54,9.54,0,0,1,40.33,4V.07a17.32,17.32,0,0,0-6.1,1.34,16.82,16.82,0,0,0-4.8,3.7Zm3.12.47L32.21,5,29.43,7.9l3.24,3.2ZM39.62,4.6c-3.19,0-5.47,2-7.09,3.74L35.6,11c1.51-1.61,2.76-2.42,4.08-2.42Zm6.28,6.8a7.09,7.09,0,0,0-1.67-4.85A6.43,6.43,0,0,0,39.44,4.6v4a2.27,2.27,0,0,1,1.82.63,3.13,3.13,0,0,1,.63,2.17Zm-13.53,19a78.8,78.8,0,0,0,9.74-10.1c2.29-3,3.8-6,3.8-9h-4c0,1.64-.86,3.75-3,6.52a74.73,74.73,0,0,1-9.23,9.51Zm.74,2.41V28.76h-4v4.1ZM51,32.08v2h2v-2Zm0-4.74h2V25.12H51ZM40,27.4l-1.46-1.53L34.17,30.1l6.07-.62ZM31,6.5,29.47,5.06l-1.41,1.5L29.54,8Zm3.09,3.07-1.45,1.48,1.54,1.54L35.67,11Zm-3,19.19-1.33-1.49-.67.6v.89Zm.71,2.81H29.09v2.55H31.8ZM5.56,17.2c0,4.25.48,7.33,1.47,9.42a6.44,6.44,0,0,0,2.1,2.58,5,5,0,0,0,2.91.88v-4a1.07,1.07,0,0,1-.65-.18,2.37,2.37,0,0,1-.74-1c-.65-1.27-1.09-3.63-1.09-7.7ZM12,4.52a5.25,5.25,0,0,0-2.88.83A6.28,6.28,0,0,0,7,7.88C6,9.93,5.56,13,5.56,17.2h4c0-4.06.48-6.35,1.08-7.57a2.19,2.19,0,0,1,.72-.93A1.19,1.19,0,0,1,12,8.52ZM18.48,17.2C18.48,13,18,9.94,17,7.89a6,6,0,0,0-2.1-2.53A5.06,5.06,0,0,0,12,4.52v4a1.2,1.2,0,0,1,.67.17,2.2,2.2,0,0,1,.71.94c.59,1.21,1.06,3.51,1.06,7.57ZM12,30.08a5,5,0,0,0,3-.88,6.37,6.37,0,0,0,2-2.59c1-2.09,1.45-5.17,1.45-9.41h-4c0,4.08-.47,6.44-1.07,7.71a2.34,2.34,0,0,1-.73,1,1,1,0,0,1-.64.18ZM20,17.2c0,4.9-1,8.32-2.41,10.46a6.39,6.39,0,0,1-5.59,3v4a10.45,10.45,0,0,0,9-4.76c2-3,3-7.36,3-12.7ZM12,4a6.44,6.44,0,0,1,5.61,2.91C19.08,9,20,12.32,20,17.2h4c0-5.32-1-9.58-3.11-12.56A10.45,10.45,0,0,0,12,0ZM4,17.2C4,12.32,5,9,6.4,6.92A6.48,6.48,0,0,1,12,4V0A10.48,10.48,0,0,0,3.11,4.63C1,7.62,0,11.88,0,17.2Zm8,13.48a6.47,6.47,0,0,1-5.63-3C5,25.52,4,22.1,4,17.2H0c0,5.34,1,9.66,3.1,12.7A10.41,10.41,0,0,0,12,34.68Z" transform="translate(0 0)"/><path class="cls-1" d="M31.11,32.12V28.76C39.19,21.52,43.91,16,43.91,11.4c0-3-1.56-4.8-4.4-4.8-2.2,0-3.92,1.4-5.44,3.08l-3.24-3.2C33.55,3.56,36.23,2,40.27,2c5.56,0,9.32,3.56,9.32,9.08s-4.48,11.16-9.88,16.44c1.48-.16,3.44-.36,4.84-.36H51v5ZM12,28.08c2.56,0,4.44-2.56,4.44-10.88S14.6,6.52,12,6.52,7.56,8.92,7.56,17.2,9.48,28.08,12,28.08Zm0,4.6c-6,0-10-5.24-10-15.48S6,2,12,2,22,7,22,17.2,18,32.68,12,32.68Z" transform="translate(0 0)"/><rect x="49.94" y="10.81" width="1.64" height="0.6" transform="matrix(1, 0.04, -0.04, 1, 0.45, -1.88)"/></svg>