<svg id="レイヤー_1" data-name="レイヤー 1" xmlns="http://www.w3.org/2000/svg" viewBox="0 0 52.79 34.71"><defs><style>.cls-1{fill:#fff;}</style></defs><path d="M48.79,24.13a5.7,5.7,0,0,1-2.3,4.73,10.11,10.11,0,0,1-6.14,1.83v4A14,14,0,0,0,48.92,32a9.72,9.72,0,0,0,3.87-7.91Zm-4.47-5.4c2.74.78,4.47,2.59,4.47,5.4h4c0-5-3.38-8.1-7.37-9.24Zm-1.45-2.12v.2h4v-.2Zm4.92-6.72a4.81,4.81,0,0,1-.88,2.91,6,6,0,0,1-2.75,1.94l1.42,3.74a9.85,9.85,0,0,0,4.55-3.31,8.77,8.77,0,0,0,1.66-5.28ZM40.19,4A9.14,9.14,0,0,1,45.9,5.61a5.15,5.15,0,0,1,1.89,4.28h4a9.18,9.18,0,0,0-3.41-7.42A13.06,13.06,0,0,0,40.19,0ZM32.66,7.13A11.22,11.22,0,0,1,40.19,4V0A15.24,15.24,0,0,0,30.05,4.09ZM35.9,8l-3-3.64L29.81,6.88l3,3.64ZM40,4.61c-2.84,0-5,1.38-7,3.18l2.72,2.92c1.59-1.48,2.84-2.1,4.28-2.1Zm6,5.72a5.64,5.64,0,0,0-1.66-4.18A6.08,6.08,0,0,0,40,4.61v4a2.23,2.23,0,0,1,1.5.4,1.66,1.66,0,0,1,.41,1.28Zm-9.4,6.55c2.94,0,5.29-.48,6.95-1.66a5.82,5.82,0,0,0,2.45-5H41.91a1.74,1.74,0,0,1-.72,1.63c-.64.44-2,.9-4.59.9Zm2.2,2.38V14.8h-4v4.46ZM47,23.77a5.77,5.77,0,0,0-2.48-5.12C42.7,17.49,40.2,17,37,17v4c3,0,4.53.46,5.24.93.5.34.74.78.74,1.79Zm-7.08,6.16a7.76,7.76,0,0,0,4.93-1.56A5.9,5.9,0,0,0,47,23.65H43a1.88,1.88,0,0,1-.64,1.54,3.86,3.86,0,0,1-2.44.66Zm-8-3.71a11.28,11.28,0,0,0,8,3.71V25.86a7.27,7.27,0,0,1-5.16-2.55ZM32,29.77l2.79-3.66-3.15-2.34-2.76,3.62Zm8.38.92c-4.16,0-6.78-1.49-8.47-3.43l-3,2.62c2.5,2.86,6.25,4.81,11.53,4.81Zm4.49-13.88h-2v1.51l1.45.41Zm0-.2-.71-1.87-1.29.49v1.38Zm-13.28-11L30.16,3.94,28.51,5.36,29.89,7Zm2.76,3.63-1.54,1.27,1.35,1.64,1.56-1.45Zm2.45,5.57V12.73h-2v2.08Zm.31,4.2H34.8v2h2.31Zm-3.75,6.27L35,23.54l-1.85-1.89L31.6,23.81Zm-2.69,3.33-1.74-1.25L27.84,28.7,29,30ZM5.56,17.21c0,4.25.48,7.33,1.47,9.42a6.44,6.44,0,0,0,2.1,2.58,5,5,0,0,0,2.91.88v-4a1.07,1.07,0,0,1-.65-.18,2.37,2.37,0,0,1-.74-1c-.65-1.27-1.09-3.63-1.09-7.7ZM12,4.53a5.25,5.25,0,0,0-2.88.83A6.28,6.28,0,0,0,7,7.89C6,9.94,5.56,13,5.56,17.21h4c0-4.06.48-6.35,1.08-7.57a2.19,2.19,0,0,1,.72-.93A1.19,1.19,0,0,1,12,8.53Zm6.48,12.68C18.48,13,18,10,17,7.9a6,6,0,0,0-2.1-2.53A5.06,5.06,0,0,0,12,4.53v4a1.2,1.2,0,0,1,.67.17,2.2,2.2,0,0,1,.71.94c.59,1.21,1.06,3.51,1.06,7.57ZM12,30.09a5,5,0,0,0,3-.88,6.37,6.37,0,0,0,2-2.59c1-2.09,1.45-5.17,1.45-9.41h-4c0,4.08-.47,6.44-1.07,7.71a2.34,2.34,0,0,1-.73,1,1,1,0,0,1-.64.18Zm8-12.88c0,4.9-1,8.32-2.41,10.46a6.39,6.39,0,0,1-5.59,3v4a10.45,10.45,0,0,0,9-4.76c2-3,3-7.36,3-12.7ZM12,4a6.44,6.44,0,0,1,5.61,2.91C19.08,9,20,12.33,20,17.21h4c0-5.32-1-9.58-3.11-12.56A10.46,10.46,0,0,0,12,0ZM4,17.21C4,12.33,5,9,6.4,6.93A6.49,6.49,0,0,1,12,4V0A10.47,10.47,0,0,0,3.11,4.64C1,7.63,0,11.89,0,17.21Zm8,13.48a6.47,6.47,0,0,1-5.63-3C5,25.53,4,22.11,4,17.21H0c0,5.34,1,9.66,3.1,12.7A10.41,10.41,0,0,0,12,34.69Z" transform="translate(0 0.01)"/><path class="cls-1" d="M40.35,32.69c-4.68,0-7.84-1.72-9.92-4.12l2.8-3.72a9.32,9.32,0,0,0,6.56,3.08c3,0,5.08-1.52,5.08-4.16,0-2.92-1.72-4.72-8.16-4.72V14.81c5.44,0,7.2-1.84,7.2-4.48,0-2.32-1.44-3.72-4-3.72-2.12,0-3.84,1-5.6,2.64l-3-3.64A13.24,13.24,0,0,1,40.19,2c5.72,0,9.6,2.8,9.6,7.88,0,3.16-1.76,5.52-4.92,6.72v.2c3.36,1,5.92,3.4,5.92,7.32C50.79,29.57,46,32.69,40.35,32.69ZM12,28.09c2.56,0,4.44-2.56,4.44-10.88S14.6,6.53,12,6.53,7.56,8.93,7.56,17.21,9.48,28.09,12,28.09Zm0,4.6c-6,0-10-5.24-10-15.48S6,2,12,2,22,7,22,17.2,18,32.69,12,32.69Z" transform="translate(0 0.01)"/></svg>