<svg width="560" height="103" viewBox="0 0 560 103" fill="none" xmlns="http://www.w3.org/2000/svg">
<g filter="url(#filter0_d_342_48)">
<path d="M25.8642 0.376991C25.4328 0.566734 23.9498 1.89494 22.5746 3.35867C20.2557 5.7711 19.9322 6.25902 18.0717 10.081C16.1842 13.9842 13.8653 19.4326 13.8653 19.9747C13.8653 20.1373 13.6226 20.4626 13.326 20.7337C12.7867 21.2216 11.142 25.938 10.6027 28.5402C10.4409 29.3263 10.0364 30.9798 9.68591 32.2537C9.33538 33.5277 8.93092 35.4794 8.74217 36.5907C8.55343 37.7021 8.17593 39.2742 7.90629 40.0603C6.69292 43.5028 6.07275 48.4361 5.9649 55.2939C5.93793 59.0074 5.99186 59.6309 6.47721 60.7151C7.28613 62.5041 8.74217 63.6968 10.1443 63.6968C11.8161 63.6968 12.9755 62.8565 13.1912 61.447C14.2698 54.5621 20.3636 38.6779 23.761 33.9343C24.4891 32.9314 25.5946 31.1966 26.2687 30.0853C28.7763 25.7754 34.1421 17.8333 36.7037 14.6077C39.8854 10.6502 43.6334 6.88245 44.7389 6.6114C45.8175 6.34033 46.7612 7.45168 46.7612 9.02383C46.7612 11.3279 44.685 17.1557 43.3637 18.5652C43.0671 18.8633 42.0425 20.3271 41.0449 21.8179C37.7553 26.8596 32.3086 32.0369 28.5067 33.7717C27.4551 34.2596 26.4305 34.9101 26.2687 35.2354C25.8103 36.1028 26.4574 37.1328 28.264 38.3255C30.1245 39.5724 31.6614 39.7621 33.3871 38.9489C33.9803 38.6508 35.0858 38.4068 35.9757 38.4068C37.3508 38.3797 37.6744 38.461 38.5642 39.1929C40.3708 40.6566 40.6134 41.1716 40.7483 43.8009C40.8561 45.8068 40.7752 46.4844 40.2899 47.7313C37.9979 53.9657 30.5829 60.5796 20.2018 65.7298C14.9169 68.3319 10.6836 69.7957 6.31543 70.4733C5.20991 70.636 4.18528 70.8799 4.07743 70.9883C3.67297 71.3949 4.91331 72.2623 6.39632 72.6147C8.90396 73.211 14.2967 73.3195 16.7235 72.8044C20.8759 71.9099 27.1854 69.5517 30.7986 67.573C32.8748 66.4345 37.0812 63.5613 38.6451 62.206C44.3614 57.2727 47.8397 50.6046 47.9206 44.4515C47.9746 41.7138 47.5971 40.3585 46.4107 38.5966C44.8468 36.3197 42.2852 34.9372 38.8877 34.5578C38.0249 34.4493 37.3238 34.3138 37.3238 34.2054C37.3238 34.097 38.0519 33.6091 38.9417 33.1211C42.7436 31.034 46.869 27.2933 49.5924 23.4443C54.9043 15.963 55.7941 6.74693 51.6416 2.43706C49.6463 0.349892 47.2196 0.0246124 44.7928 1.51545C42.1773 3.14182 36.2453 9.67438 31.3648 16.2612C26.7271 22.5498 24.7857 25.8025 19.7704 35.5065C18.5031 37.9189 15.4292 45.617 14.2698 49.2493C14.1889 49.439 14.0541 49.6016 13.9462 49.6016C13.5148 49.6016 13.8923 44.0991 14.4585 42.1475C15.1865 39.5995 16.292 35.3709 17.5324 30.6274C19.6625 22.2516 24.7048 10.7315 27.6438 7.47879C29.4234 5.47294 30.1515 4.06342 29.9358 2.92496C29.747 1.94915 29.1808 1.19018 28.1561 0.458313C27.3742 -0.0838089 26.9428 -0.110916 25.8642 0.376991ZM50.5092 19.9476C49.7003 21.4655 48.406 23.1461 48.1903 22.9293C48.1363 22.875 48.7835 21.7095 49.6463 20.3271C51.3181 17.6165 51.8843 17.3725 50.5092 19.9476ZM10.36 41.8764C10.36 42.4727 9.17359 45.2647 8.90396 45.2647C8.63432 45.2647 8.93092 43.557 9.41627 42.3372C9.79376 41.4427 10.36 41.1716 10.36 41.8764ZM40.964 50.7401C40.5865 52.4749 39.2383 55.0229 37.944 56.4053C36.7576 57.7064 34.7084 59.2514 34.4926 59.0346C34.4387 58.9803 35.0858 58.1672 35.9487 57.1913C37.5665 55.3752 40.8291 50.6588 40.8291 50.1438C40.8291 50.0082 40.91 49.8727 40.9909 49.8727C41.0718 49.8727 41.0449 50.2793 40.964 50.7401Z" fill="#FEFEFE"/>
<path d="M320.579 0.3228C317.613 1.37994 312.328 6.74694 308.58 12.4934C308.041 13.3337 307.232 14.4993 306.773 15.0685C306.315 15.6648 305.857 16.4238 305.749 16.8033C305.506 17.6165 304.131 19.6765 303.619 19.9747C302.567 20.6253 297.902 30.0853 296.015 35.4523C292.564 45.2376 292.051 47.135 291.728 51.0925C291.647 52.2852 291.458 53.9928 291.323 54.8873C290.757 58.3569 291.269 60.9862 293.076 63.9679C295.287 67.6001 300.059 71.151 304.185 72.2352C305.56 72.5876 305.911 72.5876 307.097 72.2352C311.708 70.907 318.799 64.0763 322.332 57.6522C324.084 54.4265 325.298 50.3064 325.298 47.5687C325.298 45.102 324.597 45.2918 322.979 48.165C320.363 52.8815 312.625 61.7452 309.119 64.0221C305.803 66.1906 302.324 67.1122 300.437 66.3261C299.331 65.8653 298.361 64.51 297.821 62.6668C297.417 61.2302 297.633 57.869 298.388 53.9386C299.493 48.1108 304.616 33.9614 308.23 26.7241C311.843 19.4597 318.368 9.78282 320.552 8.40041C321.037 8.12935 321.658 7.61433 321.954 7.28906C322.547 6.6114 325.459 5.14768 326.187 5.14768C327.131 5.14768 327.994 6.36745 327.994 7.66854C327.994 9.94545 325.864 15.2582 323.815 18.1315C323.302 18.8634 322.871 19.5139 322.871 19.6223C322.871 19.7036 322.386 20.5981 321.792 21.574C320.606 23.5527 320.714 23.7696 322.655 23.4714C324.057 23.2545 325.271 22.6853 327.212 21.3842C329.908 19.5681 331.257 17.5623 331.931 14.3909C332.416 12.0326 332.416 10.596 331.877 8.42751C330.987 4.84951 328.83 1.84074 326.241 0.648071C324.758 -0.0566864 322.089 -0.219322 320.579 0.3228ZM314.054 13.9572C313.973 14.2011 313.838 14.3366 313.784 14.2553C313.703 14.174 313.73 14.0114 313.838 13.8487C314.081 13.415 314.242 13.4964 314.054 13.9572ZM312.409 16.6136C309.497 21.2758 301.839 36.0757 301.839 37.0786C301.839 37.2684 301.731 37.3768 301.596 37.2955C301.354 37.1329 301.623 36.2926 303.187 32.3893C305.587 26.3446 309.713 18.9176 312.732 15.1498C313.73 13.93 313.514 14.8517 312.409 16.6136ZM301.219 38.2713C301.138 38.4882 301.057 38.4068 301.057 38.1087C301.03 37.8105 301.111 37.6479 301.192 37.7563C301.273 37.8376 301.3 38.0816 301.219 38.2713Z" fill="#FEFEFE"/>
<path d="M394.891 2.49107C393.543 2.87055 391.656 5.01193 390.173 7.88518C389.445 9.29469 388.447 10.8668 387.962 11.409C387.099 12.3848 385.535 15.4478 384.025 19.08C382.839 21.9803 383.027 21.8719 378.47 22.0617C369.303 22.4683 364.395 23.1459 364.395 24.0133C364.395 24.1759 364.719 24.4199 365.096 24.5012C366.418 24.8536 371.81 25.2331 373.024 25.0704C375.666 24.7452 380.897 24.4199 381.248 24.5554C381.544 24.691 381.517 24.9349 381.059 25.9649C380.762 26.6697 379.926 28.9195 379.198 30.9796C378.47 33.0396 377.715 35.0455 377.5 35.4521C377.311 35.8587 376.987 36.8345 376.826 37.6206C376.664 38.4337 376.232 39.5993 375.855 40.2227C375.073 41.578 372.565 49.0051 372.215 51.0381C372.08 51.8241 371.406 54.8871 370.732 57.8688C369.734 62.3413 369.491 63.805 369.464 66.2717C369.411 69.5515 369.788 70.7713 371.325 72.235C373.698 74.4848 376.394 74.5119 378.524 72.2892C381.517 69.172 390.847 56.9201 393.921 52.041C394.622 50.9296 395.808 49.2491 396.509 48.3275C398.397 45.915 398.909 44.9663 398.909 44.0176C398.909 42.2828 397.345 42.7165 396.024 44.8037C395.35 45.8879 393.543 48.2732 388.771 54.3721C384.483 59.8475 382.272 62.531 380.331 64.564C379.252 65.7296 378.443 66.6783 378.551 66.6783C378.956 66.6783 377.985 67.5999 377.203 67.9252C376.637 68.142 376.286 68.1691 376.071 67.9794C374.318 66.5156 379.765 47.4058 386.02 33.0125C387.045 30.6543 388.123 27.9437 388.42 26.9679C388.717 25.992 389.229 24.962 389.553 24.6367C390.092 24.1217 390.361 24.0675 392.653 24.2301C394.595 24.3386 395.404 24.2844 396.213 23.9591C396.968 23.6609 397.669 23.5796 398.505 23.688C399.367 23.8236 399.961 23.7693 400.689 23.417C401.686 22.9291 402.414 21.8448 401.983 21.4382C401.848 21.3298 399.394 21.3569 396.536 21.4924C393.678 21.628 391.251 21.6822 391.17 21.5738C390.982 21.4111 391.494 20.3269 394.055 15.4749C395.781 12.2222 397.048 10.2163 398.343 8.75258C399.044 7.9665 399.799 6.96358 400.014 6.55698C400.203 6.15039 400.608 5.49985 400.877 5.12036C402.306 3.11451 398.505 1.43393 394.891 2.49107ZM384.537 33.6631C384.456 33.8528 384.402 33.7173 384.402 33.3378C384.402 32.9583 384.456 32.8228 384.537 32.9854C384.591 33.1752 384.591 33.5004 384.537 33.6631ZM383.297 36.7803C382.812 38.1085 382.111 39.9788 381.76 40.9817C381.409 42.0117 380.816 43.6381 380.466 44.641C379.01 48.734 377.554 52.7457 377.338 53.2608C377.203 53.5589 377.041 54.0468 376.96 54.345C376.88 54.6432 376.88 54.345 376.96 53.6945C377.122 52.2849 377.958 49.5743 379.819 44.3158C381.248 40.3312 383.863 34.1239 384.052 34.3136C384.106 34.3678 383.755 35.4792 383.297 36.7803Z" fill="#FEFEFE"/>
<path d="M134.96 4.60574C131.751 5.77129 127.491 8.99692 124.525 12.4936C122.071 15.394 118.62 20.1917 117.191 22.6855C116.571 23.7426 115.735 25.0166 115.33 25.5045C113.874 27.2122 109.83 34.9917 108.535 38.5154C107.942 40.1418 106.109 46.7557 105.408 49.8729C103.924 56.4326 104.922 61.2303 108.778 66.3534C113.47 72.5878 119.051 73.6178 125.657 69.4977C130.187 66.6787 134.69 60.9322 139.301 52.0414C141.97 46.8912 143.319 43.2861 144.478 38.0275C144.99 35.7506 145.044 31.6576 144.613 30.3294C143.912 28.2422 141.593 26.1822 140.137 26.3448C139.409 26.4261 139.382 26.4803 139.328 28.188C139.112 34.4495 136.901 41.9308 133.018 49.6831C130.538 54.6707 128.084 58.33 125.603 60.8509C124.471 61.9893 123.608 62.9651 123.689 63.0736C124.174 63.5344 119.617 65.8655 117.191 66.3805C114.926 66.8413 113.254 66.245 112.283 64.6186C110.692 61.8538 111.663 54.1557 114.791 45.0751C117.029 38.6239 122.503 27.158 125.738 22.1705C132.183 12.2225 137.117 7.66872 139.652 9.32219C140.245 9.70168 140.326 9.97274 140.326 11.328C140.326 13.2526 139.139 16.0716 137.009 19.2972C135.176 22.0892 133.693 23.4716 129.217 26.6159C128.354 27.2122 127.653 27.8356 127.653 28.0254C127.653 28.5946 128.542 29.2181 129.729 29.4891C131.832 29.977 133.935 28.8386 138.438 24.7998C140.595 22.8481 141.296 22.0892 143.157 19.6496C147.363 14.12 147.363 10.6775 143.184 6.82843C140.272 4.17204 137.953 3.52149 134.96 4.60574ZM120.885 19.9749C120.561 20.5441 119.779 21.791 119.159 22.7668C115.573 28.3236 111.447 35.9675 109.991 39.7081C109.587 40.7381 109.102 41.985 108.886 42.4729C108.67 42.9337 108.508 43.4759 108.508 43.6927C108.508 43.9096 108.4 44.1806 108.266 44.3161C108.131 44.4788 107.942 44.8312 107.861 45.1293C107.78 45.4275 107.78 45.1835 107.861 44.5872C108.239 41.8766 111.69 33.799 114.575 28.8115C116.624 25.3148 120.993 18.972 121.343 18.972C121.424 18.972 121.235 19.4328 120.885 19.9749ZM107.349 46.9454C107.268 47.1352 107.214 46.9996 107.214 46.6202C107.214 46.2407 107.268 46.1051 107.349 46.2678C107.403 46.4575 107.403 46.7828 107.349 46.9454Z" fill="#FEFEFE"/>
<path d="M228.47 4.71397C225.019 6.12349 221.703 8.64436 218.602 12.1953C216.283 14.8517 212.292 20.2729 210.998 22.5498C210.513 23.4172 209.596 24.8267 208.922 25.7212C207.573 27.5373 203.529 35.2896 202.477 38.0816C201.776 39.9519 200.078 45.9423 199.296 49.3306C199.053 50.3064 198.729 52.3123 198.568 53.8031C198.217 56.7034 198.433 58.0858 199.646 61.447C200.833 64.6726 204.284 69.0096 206.926 70.5546C208.598 71.5305 211.321 72.2081 212.885 72.0184C220.166 71.151 226.934 64.266 233.567 50.9569C237.045 44.0178 238.852 37.6479 238.69 33.0669C238.609 30.8442 238.501 30.3021 237.854 29.2179C236.641 27.1307 233.836 25.5857 233.162 26.6157C233.054 26.8054 232.946 28.1336 232.92 29.5431C232.812 36.1841 228.659 47.5958 223.347 55.836C222.431 57.2456 220.651 59.4683 219.384 60.7694C218.116 62.0975 217.173 63.1547 217.28 63.1547C217.901 63.1547 216.579 64.1034 214.638 65.025C212.103 66.2448 209.811 66.7598 208.544 66.4074C206.603 65.8382 205.875 64.9437 205.362 62.4499C205.012 60.8507 205.443 56.6492 206.36 52.5562C208.059 44.9936 213.883 31.2508 218.763 23.363C225.424 12.6018 231.329 7.09931 233.621 9.53886C234.618 10.596 234.268 12.7103 232.596 16.0443C230.223 20.815 228.336 22.9293 223.428 26.2633C221.352 27.6728 221.163 28.0794 222.134 28.9197C222.7 29.4076 223.186 29.5431 224.237 29.5431C226.125 29.5431 227.338 28.8926 230.547 26.2091C236.452 21.2216 240.065 16.0985 240.092 12.6561C240.092 10.8671 239.202 9.10516 237.261 7.18063C234.241 4.14474 231.598 3.41288 228.47 4.71397ZM214.261 20.6524C209.407 28.1336 205.282 35.6962 203.556 40.25C202.99 41.7409 202.45 43.0691 202.316 43.2317C202.208 43.3672 202.046 43.9636 201.938 44.5057C201.83 45.0749 201.641 45.5357 201.507 45.5357C201.21 45.5357 201.21 45.1291 201.507 44.5057C201.614 44.2617 201.938 43.3672 202.181 42.5541C203.61 37.8647 206.522 31.7116 209.677 26.6428C211.537 23.634 215.069 18.7007 215.258 18.8633C215.312 18.9176 214.854 19.7036 214.261 20.6524ZM201.183 46.8097C201.102 47.0808 201.048 46.9181 201.048 46.4844C201.048 46.0236 201.102 45.8339 201.183 45.9965C201.237 46.1863 201.237 46.5658 201.183 46.8097Z" fill="#FEFEFE"/>
<path d="M165.24 4.71396C160.926 5.68977 155.695 9.75568 154.563 13.0084C154.401 13.4963 153.862 14.5535 153.349 15.3938C152.864 16.2611 152.271 17.5351 152.055 18.267C151.597 19.8391 151.516 22.9292 151.947 24.0406C152.837 26.4259 155.156 26.7512 155.156 24.4743C155.156 21.9263 159.2 14.2011 162.139 11.1381C163.703 9.51173 165.968 8.12932 167.101 8.12932C167.991 8.12932 168.638 8.9425 168.638 9.99964C168.638 12.141 166.076 19.6494 162.814 27.1578C160.333 32.8772 158.985 36.157 157.502 40.25C156.828 42.039 155.452 45.4544 154.428 47.8397C151.731 54.0199 150.545 57.6521 150.383 60.3627C150.195 62.9649 150.491 63.8594 151.839 65.0521C152.81 65.9195 153.619 66.055 154.724 65.54C155.641 65.1334 156.019 64.4829 156.747 62.2602C157.825 58.8177 159.227 56.2968 164.971 47.2163C166.696 44.5057 168.368 41.7409 168.665 41.1174C168.988 40.494 169.743 39.5182 170.363 38.8947C170.957 38.2984 172.386 36.5365 173.491 34.9915C177.482 29.4076 178.722 27.7541 180.205 25.8838C181.958 23.6882 186.083 18.8091 187.62 17.1285C188.942 15.719 191.449 13.9842 191.961 14.174C192.878 14.5535 192.636 17.3454 191.557 18.5652C191.018 19.1615 186.461 28.486 184.385 33.2024C183.684 34.8288 181.904 38.5966 180.448 41.5511C178.992 44.5057 177.805 47.0266 177.805 47.1621C177.805 47.7042 176.511 51.1467 175.379 53.532C173.006 58.628 172.251 61.9891 172.494 66.2719C172.925 73.5363 177.239 79.9604 181.715 79.9604C184.708 79.9604 188.51 77.7649 190.236 75.0271C191.368 73.2652 191.045 72.8315 189.184 73.5363C184.088 75.5151 180.313 75.5422 178.722 73.6447C176.943 71.5034 178.507 66.055 185.355 50.6859C189.804 40.7379 191.072 37.8376 191.719 36.1299C192.069 35.2083 193.121 33.0669 194.065 31.3863C196.087 27.727 196.761 26.3175 197.84 23.4443C198.595 21.4655 198.675 20.9776 198.702 18.023C198.702 14.8787 198.675 14.689 197.813 12.9542C196.761 10.7857 195.736 10.0267 193.903 10.0267C191.341 10.0267 188.294 11.9784 184.142 16.2883C178.291 22.3871 172.44 30.0853 167.128 38.7592C164.701 42.7167 164.297 42.9335 165.645 39.5182C166.076 38.4339 166.75 36.4281 167.155 35.0999C167.559 33.7446 168.665 30.4647 169.608 27.8083C172.413 20.0018 173.303 16.5593 173.303 13.6861C173.303 10.8941 172.763 8.56302 171.658 6.80112C170.417 4.76817 168.206 4.06341 165.24 4.71396ZM192.743 20.7608C191.773 23.6611 189.804 27.8083 187.971 30.8713C187.135 32.2808 186.434 33.5006 186.434 33.609C186.434 33.7446 186.272 33.8801 186.083 33.9614C185.706 34.097 185.733 34.0427 189.912 25.3959C191.422 22.3058 192.636 19.6494 192.636 19.5139C192.636 19.3512 192.77 19.2428 192.905 19.2428C193.067 19.2428 193.175 19.026 193.175 18.782C193.175 18.5381 193.256 18.4025 193.337 18.4838C193.418 18.5652 193.148 19.5952 192.743 20.7608ZM156.882 44.8852C156.504 45.7797 156.019 46.8368 155.83 47.2976C155.641 47.7313 155.129 48.8969 154.671 49.8727C154.239 50.8485 153.673 52.3122 153.403 53.1254C153.107 53.9386 152.783 54.7247 152.675 54.8602C152.567 55.0229 152.459 55.4023 152.459 55.7276C152.459 56.08 152.352 56.4324 152.19 56.5137C152.055 56.595 151.893 57.0829 151.893 57.5437C151.866 58.0858 151.812 58.2214 151.731 57.8961C151.597 57.4082 152.19 54.8873 152.729 53.532C152.864 53.2338 153.322 52.0141 153.754 50.8214C154.671 48.3548 156.801 43.828 157.097 43.6925C157.232 43.6383 157.34 43.3401 157.34 43.0149C157.367 42.6083 157.421 42.5541 157.502 42.8522C157.556 43.0962 157.286 44.0178 156.882 44.8852ZM151.462 60.2001C151.246 60.9862 151.111 60.8236 151.111 59.8206C151.111 59.2243 151.192 59.0617 151.354 59.3327C151.489 59.5225 151.516 59.9291 151.462 60.2001Z" fill="#FEFEFE"/>
<path d="M76.3136 5.47311C75.3429 6.44893 73.5363 9.4577 72.4308 11.8701C72.0533 12.7375 71.3523 13.876 70.8939 14.4452C69.9502 15.5566 68.4671 18.4298 66.7684 22.4957C66.1752 23.9053 65.1236 26.399 64.4226 28.0525C62.8047 31.8202 59.7039 41.2531 59.7039 42.3916C59.6769 42.8524 59.4882 43.7198 59.2725 44.3161C58.0052 47.6231 57.0614 53.1798 57.385 55.5109C57.6546 57.4626 58.7602 59.4684 60.6207 61.3388C63.1822 63.8867 66.364 65.3776 67.9548 64.7812C68.7368 64.456 73.4285 59.5769 76.9068 55.3754C78.282 53.749 81.3289 49.2765 84.214 44.7227L84.8342 43.774L84.6454 45.2648C84.5646 46.078 84.1871 47.8399 83.8096 49.141C83.4321 50.4692 82.9737 52.8274 82.758 54.4267C82.5423 56.026 82.1917 57.9234 81.9491 58.6552C81.3559 60.5798 81.4098 64.8354 82.0569 66.9226C82.5423 68.4948 83.5399 70.1482 84.5106 70.9614C86.0476 72.2625 89.1484 72.7775 90.6853 71.9914C91.6021 71.5035 92.8694 70.094 93.7862 68.4948C95.3771 65.7841 96.1051 62.0706 95.1344 61.6911C94.649 61.5014 94.0289 62.1248 91.71 65.0523C90.5505 66.5431 89.0406 67.7629 88.4204 67.7629C87.8811 67.7629 87.7733 67.1395 87.7193 64.1307C87.6924 61.6911 87.8002 60.9593 88.6361 58.1131C89.1754 56.3512 90.0921 52.9359 90.7123 50.5505C92.1684 44.8854 93.3008 41.1989 94.2176 39.0304C94.6221 38.0546 95.404 36.1572 95.9703 34.829C97.9656 29.977 100.392 25.3419 101.714 23.7697C102.442 22.9023 103.25 21.7368 103.52 21.1675C103.952 20.1646 103.952 20.0562 103.52 19.1346C102.981 17.9961 101.767 17.1558 100.258 16.9119C98.2622 16.6137 97.1027 17.5895 94.5681 21.6826C93.6783 23.0921 90.1191 28.5946 86.6138 33.8803C83.1355 39.166 80.0077 43.9909 79.7111 44.5872C79.4145 45.2106 78.0393 47.0267 76.6911 48.6531C75.316 50.3066 73.1319 52.9088 71.8376 54.4809C69.4378 57.3542 68.8716 57.9234 67.3347 59.0347C66.2561 59.7937 65.609 59.7937 65.1236 59.0347C64.6113 58.1944 64.4226 54.9959 64.7731 52.8545C65.7438 47.0267 65.9595 45.8883 66.2022 45.4546C66.364 45.1835 66.7684 43.9095 67.1459 42.6084C68.2784 38.651 71.8646 29.4349 74.1565 24.4474C74.6958 23.3089 75.4238 21.7368 75.7743 20.9778C76.745 18.7822 78.5247 15.9903 80.0346 14.3097C80.7896 13.4694 81.6255 12.3038 81.9221 11.7346C82.1917 11.1654 82.5153 10.4877 82.6501 10.2438C83.7017 8.18372 80.8975 4.60571 78.2281 4.60571C77.3922 4.60571 76.9877 4.79546 76.3136 5.47311ZM76.0979 18.8906C76.044 19.0262 75.1811 20.7609 74.2104 22.7668C71.9994 27.2935 70.7321 30.0854 70.085 31.8473C69.5727 33.2568 69.1412 33.9616 69.1412 33.3924C69.1412 33.2026 69.2491 32.8503 69.3839 32.5792C69.5187 32.3352 70.031 31.007 70.5164 29.6788C71.6219 26.5345 74.6958 20.273 75.3429 19.7851C75.4238 19.7038 75.5856 19.4327 75.6935 19.1617C75.7743 18.9177 75.9361 18.7009 76.017 18.7009C76.1249 18.7009 76.1518 18.7822 76.0979 18.8906ZM69.0603 34.4766C68.9795 34.6935 68.8986 34.6122 68.8986 34.314C68.8716 34.0158 68.9525 33.8532 69.0334 33.9616C69.1143 34.0429 69.1412 34.2869 69.0603 34.4766ZM84.7803 52.8817C84.4837 54.5893 84.0522 56.9476 83.8365 58.1402C83.6208 59.3329 83.3512 60.8237 83.2703 61.4743C83.1624 62.179 82.9737 62.5314 82.8389 62.3959C82.3266 61.8809 83.7556 52.963 84.7533 50.3066C85.3195 48.87 85.3195 49.7645 84.7803 52.8817Z" fill="#FEFEFE"/>
<path d="M263.631 6.52987C262.175 6.96357 261.501 8.04781 261.312 10.3518C260.908 14.9599 256.135 37.7561 253.817 46.0776C252.145 52.0681 252.118 54.2095 253.709 54.2095C255.057 54.2095 256.297 51.0652 260.45 37.2682C263.335 27.6997 265.141 22.2514 267.703 15.3936C270.022 9.15916 269.995 8.04781 267.595 6.82803C266.355 6.20459 265.087 6.09617 263.631 6.52987ZM260.935 27.1576C260.531 30.6543 258.94 36.6447 258.535 36.2381C258.346 36.0484 259.021 32.5788 259.641 30.4916C259.991 29.299 260.423 27.8081 260.584 27.1576C260.746 26.5342 260.908 26.0191 260.962 26.0191C261.016 26.0191 261.016 26.5342 260.935 27.1576Z" fill="#FEFEFE"/>
<path d="M477.967 19.1885C477.428 19.3511 477.05 19.8119 476.403 21.113C476.295 21.3298 476.403 21.628 476.646 21.8177C477.266 22.2785 477.239 22.5496 476.268 25.3415C475.351 27.9708 474.866 28.8924 473.949 29.6243C473.518 29.9767 473.329 30.4104 473.329 31.0609C473.329 32.2265 474.003 33.6089 474.569 33.6089C475.27 33.6089 476.457 32.8499 477.239 31.9283C477.643 31.4404 478.075 31.0338 478.156 31.0338C478.479 31.0338 478.992 30.573 479.531 29.814C480.475 28.4858 479.558 28.8653 478.102 30.4104C476.727 31.9012 476.646 31.7386 477.967 30.058C478.371 29.5159 478.722 28.9737 478.722 28.8653C478.722 28.7569 479.099 28.2419 479.531 27.7269C479.989 27.239 480.34 26.6426 480.34 26.4258C480.34 26.2089 480.771 25.721 481.31 25.3144C481.823 24.9078 482.443 24.2031 482.686 23.7694C483.468 22.2243 482.497 20.1643 480.609 19.4053C479.477 18.9445 478.992 18.9174 477.967 19.1885Z" fill="#FEFEFE"/>
<path d="M492.447 29.1365C491.934 29.4076 491.638 29.8955 491.422 30.79C491.233 31.4948 490.883 32.4977 490.613 33.0398C490.343 33.5819 489.48 35.8588 488.672 38.1357L487.242 42.2288L486.407 42.0932C485.652 41.9848 485.409 42.1203 484.384 43.2588C483.009 44.831 481.122 47.7042 481.283 47.9753C481.418 48.1921 479.8 49.7643 477.778 51.3906C474.543 53.9928 473.437 54.4265 472.682 53.3694C472.089 52.502 472.143 51.8785 472.979 49.2763C473.383 48.0295 473.68 46.8639 473.626 46.6742C473.599 46.5115 473.707 46.3489 473.868 46.3489C474.03 46.3489 474.111 46.2405 474.03 46.1049C473.814 45.7526 474.138 44.9665 474.435 45.1562C474.569 45.2375 474.596 45.0749 474.489 44.831C474.354 44.4786 474.408 44.4244 474.677 44.587C474.893 44.7225 474.974 44.6954 474.839 44.5057C474.623 44.1262 475.945 41.4427 476.592 40.9819C477.158 40.6024 477.751 38.8947 477.482 38.461C477.131 37.8647 474.543 36.8618 473.383 36.8618C471.63 36.8618 470.687 37.4852 469.932 39.1387C469.15 40.8735 467.586 46.8097 467.775 47.3247C467.855 47.5145 467.748 48.0295 467.532 48.4361C466.615 50.1708 467.181 51.987 469.446 54.7789C471.037 56.7847 472.547 57.7063 474.543 57.9232C476.268 58.1129 477.562 57.0558 480.582 52.9899C482.012 51.0382 483.845 48.5174 484.627 47.3518C485.436 46.1863 486.164 45.2104 486.245 45.1291C486.353 45.0749 486.326 46.0778 486.218 47.3518C486.056 48.8427 486.083 49.9811 486.272 50.5503C486.676 51.7701 488.213 53.2067 489.157 53.1796C490.694 53.1796 490.99 52.9899 491.961 51.3635C493.983 47.921 496.114 44.8038 497.435 43.2317C498.217 42.3372 499.592 40.6024 500.536 39.3555C501.452 38.1357 502.261 37.1328 502.315 37.1328C502.558 37.1328 501.372 39.8434 500.913 40.3042C500.617 40.6024 499.969 41.7951 499.484 42.9877C498.352 45.7255 497.597 51.6888 498.136 53.6675C498.513 55.0228 499.889 56.4866 501.857 57.5979C504.85 59.2785 506.953 57.9503 512.13 51.0925C513.236 49.6016 514.53 47.9753 515.015 47.4331C516.606 45.6712 517.28 44.4244 517.28 43.3401C517.28 41.8493 516.768 41.9577 514.907 43.8551C512.831 45.9694 505.578 52.2038 504.095 53.1796C502.342 54.291 502.073 54.2097 502.261 52.6375C502.423 51.2551 503.394 47.4602 503.879 46.3489C504.041 45.9694 504.23 45.5357 504.311 45.4002C504.365 45.2375 504.149 45.4544 503.825 45.861C503.502 46.2676 502.801 47.5145 502.288 48.6529C501.21 50.984 500.859 51.3635 501.668 49.2492C502.882 46.1863 505.227 42.0661 507.061 39.8705C509.38 37.0515 510 35.8859 510 34.2867C510 32.8772 509.245 31.1424 508.328 30.5189C507.573 29.9768 506.171 29.9768 505.173 30.4918C504.769 30.6816 503.825 31.5219 503.097 32.335C501.021 34.612 495.493 41.9848 493.471 45.1291C492.473 46.7013 491.557 47.9481 491.422 47.8668C491.287 47.7855 491.341 46.8368 491.53 45.7526C491.718 44.6683 492.015 42.9064 492.177 41.8764C492.393 40.7379 492.851 39.3284 493.39 38.3526C493.876 37.4581 494.415 36.2925 494.577 35.7775C494.765 35.2625 495.52 34.1241 496.248 33.2567C497.03 32.335 497.597 31.4134 497.597 31.034C497.597 29.3263 494.307 28.1065 492.447 29.1365Z" fill="#FEFEFE"/>
<path d="M535.346 29.5702C534.834 29.6787 533.809 29.9226 533.081 30.0582C532.353 30.2208 531.194 30.7358 530.493 31.1695C528.255 32.6061 520.246 41.253 520.246 42.2288C520.246 42.4456 520.004 42.9064 519.707 43.2859C519.41 43.6654 519.168 43.8822 519.168 43.7738C519.168 43.3672 518.143 44.9123 517.172 46.7555C515.932 49.1679 515.608 51.0654 515.716 55.0228C515.77 57.5979 515.905 58.3027 516.336 58.9532C516.633 59.414 516.822 59.8748 516.795 59.9833C516.768 60.1188 517.415 60.8778 518.224 61.6909C519.518 62.9649 519.869 63.1547 520.786 63.1547C522.322 63.1547 523.077 62.7752 524.722 61.203C526.043 59.9562 530.169 54.4807 533.566 49.4661C534.294 48.409 534.807 47.7855 534.699 48.0566C534.618 48.3276 533.917 50.8485 533.189 53.6133C532.434 56.4053 531.571 59.1972 531.274 59.8477C530.924 60.5525 529.818 61.7994 528.389 63.1005C521.891 68.9283 518.359 72.8858 514.584 78.4967C512.481 81.6681 511.86 83.3216 511.834 85.7611C511.807 90.0439 515.474 94.3267 519.141 94.3267C520.57 94.3267 522.781 93.3779 523.644 92.4021C525.369 90.4776 528.767 83.945 530.6 79.0117C531.652 76.1656 532.623 73.0213 535.993 61.7994C536.371 60.5254 536.91 59.2243 537.153 58.899C537.854 58.0587 545.889 51.3906 550.176 48.165C554.841 44.587 555.353 44.0991 555.245 43.2046C555.11 42.0661 554.382 41.768 553.493 42.4727C553.088 42.798 551.174 44.2346 549.232 45.6441C545.997 48.0024 544.702 49.0324 539.984 53.0441C539.067 53.8302 538.177 54.4807 538.042 54.4807C537.476 54.4807 539.687 49.5474 542.761 43.9365C543.84 41.9306 543.92 41.3885 543.166 40.1687C542.249 38.6508 539.741 38.0273 538.069 38.8676C537.18 39.3284 529.117 50.9569 527.904 53.532C527.634 54.1012 526.232 55.7818 524.803 57.2455C522.754 59.3598 522.026 59.929 521.541 59.8477C520.947 59.7664 520.92 59.658 520.947 57.869C521.001 55.7547 521.648 53.5862 523.158 50.4419C523.698 49.3035 524.156 48.2463 524.156 48.0566C524.156 47.8668 524.372 47.5687 524.587 47.3789C525.046 47.0266 527.095 43.9365 527.122 43.5841C527.122 43.1775 529.495 40.1416 530.978 38.5695C533.324 36.1028 535.346 34.9101 537.395 34.7746C538.312 34.6933 539.31 34.7746 539.606 34.9372C540.496 35.4252 541.278 34.612 541.278 33.2025C541.278 30.7358 538.312 28.9197 535.346 29.5702ZM524.803 45.2647C524.453 45.861 523.832 46.7555 523.428 47.2434L522.646 48.1108L523.05 47.2976C523.509 46.3489 525.046 44.1804 525.262 44.1804C525.342 44.1804 525.127 44.6683 524.803 45.2647ZM527.392 71.9641C524.749 79.581 522.835 83.9992 520.92 86.8725C518.008 91.2908 515.986 91.7245 514.961 88.1736C514.152 85.3817 515.42 82.1289 519.356 76.9246C522.943 72.1539 529.171 65.2418 529.36 65.8111C529.387 65.9466 528.497 68.7114 527.392 71.9641ZM527.419 76.6535C526.771 78.5509 525.262 81.5055 524.533 82.2645C524.399 82.4 525.073 80.7736 526.043 78.6593C527.014 76.518 527.796 74.6476 527.796 74.485C527.796 74.3224 527.877 74.2411 527.958 74.3495C528.039 74.4308 527.796 75.4608 527.419 76.6535Z" fill="#FEFEFE"/>
<path d="M345.79 32.4436C344.604 32.8773 340.748 35.7777 339.858 36.889C337.593 39.7894 335.409 44.6142 334.304 49.2494C333.09 54.2911 333.629 58.4926 335.706 60.4713C336.245 60.9863 336.649 61.0676 338.348 61.0676C340.236 61.0676 340.397 61.0134 341.503 60.0918C343.417 58.5197 346.626 54.6706 348.352 51.8245C349.242 50.3607 350.401 48.5717 350.913 47.8399C351.722 46.6743 351.857 46.5659 351.938 47.0809C351.992 47.4062 351.776 48.4904 351.48 49.5204C350.212 53.8845 350.05 57.0559 350.94 60.0918C352.1 64.0493 354.877 65.8925 357.762 64.6728C359.623 63.8867 362.643 60.4713 365.797 55.5651C367.712 52.6105 372.215 43.774 372.215 42.9879C372.215 41.0634 371.163 42.0663 367.712 47.3791C361.24 57.3541 357.708 61.3116 357.007 59.4684C356.684 58.6281 356.845 55.8633 357.412 53.1527C357.708 51.6347 357.897 50.1981 357.816 49.9813C357.627 49.4662 359.002 45.5901 360.485 42.5271C361.16 41.1447 361.699 39.7352 361.699 39.3828C361.699 37.919 360.27 36.2385 358.733 35.9132C357.6 35.6692 355.767 36.5637 354.284 38.1088C353.61 38.7864 353.016 39.3286 352.99 39.2744C352.936 39.2201 352.693 38.4341 352.396 37.5396C351.156 33.7447 348.298 31.5491 345.79 32.4436ZM349.349 35.9674C349.862 36.5637 350.482 38.4612 350.266 38.678C350.185 38.7864 350.104 38.6238 350.104 38.3527C350.104 38.0817 350.023 37.9462 349.943 38.0275C349.7 38.2443 350.617 41.5513 350.967 41.7681C351.345 42.0121 350.967 42.6355 348.136 46.7556C345.089 51.1468 341.961 55.1585 341.071 55.7277C339.966 56.4596 339.777 56.0259 339.966 53.1798C340.37 47.7314 344.631 37.6209 347.192 36.0487C348.298 35.3711 348.81 35.3711 349.349 35.9674ZM352.612 46.078C352.531 46.4032 352.396 46.593 352.315 46.5117C352.181 46.349 352.45 45.5359 352.639 45.5359C352.693 45.5359 352.693 45.7798 352.612 46.078Z" fill="#FEFEFE"/>
<path d="M411.097 32.6605C410.611 32.8773 409.883 33.311 409.479 33.6363C409.074 33.9345 408.185 34.5308 407.51 34.9645C403.547 37.3769 398.693 49.5476 399.286 55.5109C399.529 57.9505 400.823 60.4984 401.983 60.8779C402.684 61.1219 405.38 61.0948 406.135 60.8508C406.944 60.6068 411.69 55.4838 412.876 53.6135C415.95 48.7886 417.595 46.349 417.811 46.349C417.945 46.349 418.053 46.1322 418.053 45.8882C418.053 45.6443 418.134 45.5359 418.242 45.6172C418.323 45.7256 418.269 46.078 418.107 46.4304C417.514 47.623 416.435 51.9329 416.139 54.2369C415.465 59.9834 417.972 65.0522 421.559 65.0522C424.12 65.0522 427.167 62.1248 431.346 55.6735C433.665 52.0684 437.737 44.0721 437.737 43.0963C437.737 41.0634 436.928 41.9037 432.749 48.2736C430.888 51.0926 428.677 54.3724 427.787 55.5109C426.035 57.842 423.931 59.9021 423.338 59.9021C422.206 59.9021 422.152 57.3812 423.176 52.475C423.446 51.1468 423.608 49.8999 423.527 49.7102C423.338 49.2223 424.606 45.6985 425.981 42.8524C427.464 39.7894 427.572 38.678 426.493 37.3769C424.74 35.3169 422.772 35.4524 420.183 37.8648L418.647 39.3015L418.053 37.5396C417.433 35.6964 416.247 33.8803 415.087 33.0129C414.144 32.3352 412.202 32.1455 411.097 32.6605ZM414.899 35.859C415.384 36.2114 416.355 38.8949 415.896 38.6238C415.734 38.5154 415.627 38.2714 415.627 38.0275C415.627 37.7835 415.546 37.648 415.465 37.7293C415.384 37.8377 415.573 38.7322 415.869 39.7894C416.193 40.8194 416.435 41.9308 416.435 42.256C416.435 43.4216 408.778 54.1014 406.863 55.6193C406.27 56.0801 406.108 56.1072 405.758 55.8091C405.407 55.5109 405.353 55.1585 405.515 53.9388C405.623 53.1256 405.758 51.9871 405.812 51.4179C406.027 49.1681 408.265 43.0963 410.099 39.681C411.339 37.404 413.092 35.5066 413.955 35.5066C414.224 35.5066 414.656 35.6693 414.899 35.859Z" fill="#FEFEFE"/>
<path d="M442.995 34.314C441.404 35.3982 440.379 36.9433 440.029 38.8136C439.84 39.7352 440.487 42.2018 441.242 43.6656C441.728 44.5601 443.696 45.2648 445.772 45.2648C446.851 45.2648 447.714 45.319 447.714 45.3462C447.714 45.4004 446.878 47.2707 445.853 49.5205C444.828 51.7432 443.858 54.0743 443.669 54.6978C443.507 55.3212 443.291 55.8362 443.157 55.8362C442.752 55.8362 441.674 59.7124 441.566 61.5827C441.431 63.8867 442.024 65.8112 443.372 67.2208C444.586 68.5219 446.284 69.064 447.39 68.4947C451.273 66.5431 455.587 62.6398 458.904 58.1131C462.22 53.6406 466.13 47.7586 467.02 46.0238C468.287 43.4758 468.233 41.47 466.912 42.3103C466.642 42.4729 464.728 44.8853 462.651 47.6502C460.602 50.4421 457.69 54.2641 456.207 56.1886C454.724 58.1131 453.511 59.8208 453.511 59.9834C453.511 60.39 450.086 63.2362 448.981 63.7783C448.226 64.1578 448.064 64.1578 447.74 63.8325C447.39 63.5072 447.606 62.7754 449.197 58.4926C450.221 55.7549 451.839 51.8245 452.783 49.7373C454.643 45.6714 455.021 44.2077 454.428 43.4758C453.807 42.6898 452.351 42.2561 450.059 42.1205C445.961 41.9037 445.287 41.6597 445.287 40.4128C445.287 39.5454 446.824 36.7806 447.174 36.9975C447.336 37.1059 447.363 36.9704 447.255 36.6993C447.147 36.4011 447.174 36.2927 447.363 36.4011C447.767 36.6722 448.091 35.1001 447.767 34.5308C447.471 34.0158 447.093 33.8803 445.287 33.6905C444.289 33.5821 443.885 33.6905 442.995 34.314ZM447.201 48.3007C446.338 50.1439 445.368 52.3395 445.017 53.2069C444.694 54.0743 444.37 54.7249 444.316 54.6706C444.073 54.4267 448.307 44.9938 448.63 44.9938C448.711 44.9938 448.064 46.4846 447.201 48.3007ZM443.966 55.7549C443.642 56.297 443.588 56.1344 443.831 55.4296C443.939 55.1857 444.073 55.0501 444.127 55.1314C444.208 55.1857 444.127 55.4838 443.966 55.7549ZM444.019 66.8955C444.478 67.4105 444.505 67.4918 444.127 67.3292C443.642 67.1394 442.59 65.3504 442.59 64.727C442.617 64.5373 442.806 64.8083 443.022 65.3233C443.238 65.8384 443.696 66.5431 444.019 66.8955Z" fill="#FEFEFE"/>
<path d="M250.743 58.7906C248.424 59.8478 246.213 63.2903 246.833 64.8895C247.157 65.8111 249.179 67.4917 249.907 67.4917C250.311 67.4917 251.228 66.9225 252.28 66.028C254.491 64.1577 255.731 61.7994 255.542 59.8749C255.434 58.7093 255.327 58.6009 254.599 58.4383C253.169 58.1672 251.848 58.2756 250.743 58.7906Z" fill="#FEFEFE"/>
</g>
<defs>
<filter id="filter0_d_342_48" x="0" y="0" width="559.258" height="102.327" filterUnits="userSpaceOnUse" color-interpolation-filters="sRGB">
<feFlood flood-opacity="0" result="BackgroundImageFix"/>
<feColorMatrix in="SourceAlpha" type="matrix" values="0 0 0 0 0 0 0 0 0 0 0 0 0 0 0 0 0 0 127 0" result="hardAlpha"/>
<feOffset dy="4"/>
<feGaussianBlur stdDeviation="2"/>
<feComposite in2="hardAlpha" operator="out"/>
<feColorMatrix type="matrix" values="0 0 0 0 0 0 0 0 0 0 0 0 0 0 0 0 0 0 0.25 0"/>
<feBlend mode="normal" in2="BackgroundImageFix" result="effect1_dropShadow_342_48"/>
<feBlend mode="normal" in="SourceGraphic" in2="effect1_dropShadow_342_48" result="shape"/>
</filter>
</defs>
</svg>
