<svg width="112" height="76" viewBox="0 0 112 76" fill="none" xmlns="http://www.w3.org/2000/svg">
<g clip-path="url(#clip0_500_2)">
<path d="M39.4919 28.985C39.8323 28.5788 40.2256 28.2185 40.6616 27.9135C40.8857 27.7553 41.1196 27.611 41.3619 27.4813C41.6083 27.347 41.8621 27.2264 42.1221 27.1201C42.3741 27.0155 42.633 26.9278 42.897 26.8577C43.1694 26.7855 43.4456 26.7284 43.7244 26.6867C44.2948 26.6055 44.8731 26.5929 45.4466 26.6494C46.0438 26.7076 46.633 26.8286 47.2041 27.0106C47.3703 27.0623 47.5353 27.1213 47.7003 27.1815C47.7321 27.0214 47.7712 26.8625 47.8103 26.6999C47.6991 26.6193 47.5879 26.5398 47.4718 26.4592C46.9152 26.0947 46.3113 25.806 45.6763 25.6008C45.0212 25.3929 44.3392 25.2786 43.6511 25.2613C43.3025 25.2513 42.9537 25.2666 42.6073 25.307C42.2525 25.3436 41.9014 25.4088 41.5574 25.5021C41.2225 25.5948 40.8932 25.7061 40.5711 25.8355C40.2445 25.9697 39.9269 26.1241 39.6202 26.2978C38.9918 26.6538 38.4208 27.1001 37.9262 27.6221C37.4258 28.1537 37.0133 28.7594 36.704 29.4172C36.3972 30.0718 36.1888 30.7669 36.0856 31.4807C35.8893 32.8823 36.0549 34.3099 36.5671 35.6318C36.8149 36.2817 37.1407 36.9 37.5376 37.4738C37.7347 37.7601 37.9494 38.0343 38.1804 38.2948C38.4136 38.5524 38.6617 38.7964 38.9236 39.0256C39.9651 39.9416 41.2518 40.5437 42.6306 40.7604C43.9448 40.9546 45.2881 40.7693 46.4977 40.2271C45.8737 40.2616 45.2478 40.2406 44.6277 40.1645C44.0354 40.0897 43.4544 39.9454 42.897 39.7347C41.831 39.3286 40.8828 38.6704 40.136 37.8181C38.6693 36.1603 37.9604 33.8705 38.2623 31.7913C38.4044 30.7628 38.8296 29.7923 39.4919 28.985Z" fill="black"/>
<path d="M47.2273 30.8401C46.7428 29.4341 46.5915 27.9376 46.7849 26.4651C46.984 24.946 47.5085 23.4859 48.3237 22.1816C48.7344 21.5198 49.2145 20.9025 49.7561 20.3396C50.3008 19.7701 50.906 19.26 51.5613 18.8178C52.2229 18.3699 52.9329 17.9956 53.6782 17.7018C54.4328 17.4089 55.2195 17.204 56.0224 17.0914C56.8331 16.983 57.6543 16.9753 58.4669 17.0685C59.2764 17.1663 60.0699 17.3653 60.8282 17.6609C62.3058 18.254 63.6279 19.169 64.6953 20.3372C64.8273 20.4792 64.9569 20.6213 65.0791 20.7694L65.2539 20.98C65.315 21.0559 65.3761 21.1353 65.4384 21.21C66.1584 22.1231 66.7027 23.1583 67.0444 24.2643C67.4833 25.6973 67.5217 27.2204 67.1557 28.673C67.1017 27.9637 66.9809 27.2608 66.7951 26.5734C66.611 25.9103 66.3554 25.2686 66.0324 24.6592C65.72 24.0628 65.3443 23.5006 64.9117 22.9822C64.6953 22.7269 64.4717 22.4789 64.2346 22.2454C64.1734 22.1852 64.1123 22.1322 64.0561 22.0756L63.8667 21.8902C63.7444 21.7698 63.6222 21.6627 63.489 21.5531C63.2348 21.3324 62.972 21.1257 62.7007 20.9331C62.4318 20.7381 62.1568 20.5563 61.8732 20.3901C61.3145 20.0609 60.7221 19.7906 60.1059 19.5835C59.5002 19.3797 58.872 19.248 58.2347 19.191C57.5998 19.1288 56.9595 19.1426 56.328 19.232C55.6883 19.316 55.0602 19.4707 54.4556 19.6931C53.8425 19.9152 53.2537 20.1976 52.698 20.5358C52.1336 20.8755 51.6017 21.2652 51.1091 21.7C50.8647 21.9179 50.6202 22.1502 50.3966 22.3898C50.1729 22.6294 49.9492 22.881 49.7427 23.1435C48.9 24.2061 48.2542 25.4067 47.8348 26.6902C47.619 27.3498 47.4612 28.0265 47.363 28.7128C47.2642 29.4176 47.2188 30.1286 47.2273 30.8401Z" fill="black"/>
<path d="M80 32.4183C79.9618 31.5885 79.797 30.7691 79.5111 29.9876C79.2269 29.223 78.8441 28.4975 78.372 27.829C77.9021 27.1695 77.3517 26.5695 76.733 26.0424C76.1146 25.5147 75.4283 25.0694 74.6919 24.7181C74.3227 24.5418 73.9412 24.3917 73.5504 24.269C73.1572 24.149 72.7556 24.0577 72.3489 23.9957C71.5337 23.8733 70.703 23.8929 69.8947 24.0535C69.1019 24.2136 68.3451 24.5134 67.6605 24.9384C67.3123 25.1561 66.9835 25.4026 66.6778 25.6752C66.7035 25.7438 66.7255 25.8161 66.745 25.8895C66.7681 25.92 66.7821 25.9563 66.7854 25.9942C66.7854 26.0376 66.7854 26.0821 66.7927 26.1255C66.8142 26.2663 66.8277 26.4081 66.833 26.5504C67.2507 26.2841 67.6941 26.0591 68.1567 25.8787C68.7753 25.6368 69.4294 25.4945 70.0939 25.4573C70.4176 25.4416 70.742 25.45 71.0644 25.4826C71.3848 25.5191 71.7022 25.5782 72.014 25.6595C72.6376 25.8278 73.2357 26.0772 73.7923 26.4012C74.3517 26.7285 74.871 27.1184 75.3397 27.5629C75.8071 28.0056 76.2224 28.4987 76.5778 29.0329C76.9328 29.5576 77.2202 30.1238 77.4334 30.7184C77.6504 31.2961 77.7797 31.9022 77.8171 32.517C77.8593 33.1195 77.7986 33.7246 77.6375 34.3073C77.4724 34.8974 77.212 35.4576 76.8662 35.9662C76.6889 36.2295 76.4924 36.4798 76.2783 36.7151C76.0603 36.9585 75.8272 37.1885 75.5805 37.4037C75.4582 37.5133 75.3262 37.618 75.1955 37.724L75.006 37.872L74.8043 38.0225C74.5281 38.2176 74.2421 38.3957 73.9488 38.5631C73.3643 38.8955 72.7364 39.1474 72.0825 39.3119C71.41 39.4771 70.7162 39.5421 70.0242 39.5045C69.2991 39.4593 68.5809 39.3382 67.8817 39.1434C68.5078 39.5602 69.1943 39.8812 69.9179 40.0957C70.6703 40.3171 71.4562 40.4075 72.2401 40.3629C73.0365 40.3113 73.8199 40.1383 74.5624 39.8501C74.9318 39.7087 75.2918 39.5447 75.6403 39.3589L75.8958 39.2216L76.1598 39.0651C76.3297 38.964 76.4947 38.8532 76.6585 38.7401C76.9885 38.5092 77.3036 38.2583 77.602 37.9888C77.9035 37.7109 78.1834 37.4111 78.4392 37.0919C78.9674 36.4375 79.3745 35.6966 79.6419 34.9032C79.9076 34.1018 80.0288 33.2608 80 32.4183Z" fill="black"/>
<path d="M43.8552 56.6714C43.9046 56.5807 43.9251 56.4775 43.9139 56.3752C43.8222 55.9863 43.6242 55.205 43.4812 54.6825C43.2832 53.9602 43.0595 53.2378 42.8224 52.5275C42.5853 51.8172 42.3335 51.1129 42.0769 50.411C42.0451 50.3231 42.0133 50.2316 41.9815 50.1401C41.7644 50.2334 41.567 50.3661 41.3997 50.5314C41.3451 50.6373 41.2826 50.7392 41.2127 50.836C41.1864 50.8749 41.1463 50.9028 41.1003 50.9143C41.093 50.9239 41.0869 50.9359 41.0807 50.9456C41.2995 51.8473 41.5806 52.743 41.8214 53.6206C42.1209 54.7174 42.4325 55.8142 42.7039 56.9182C43.0277 56.7376 43.4702 56.6834 43.8552 56.6714Z" fill="black"/>
<path d="M71.6376 56.6966C71.5891 56.6019 71.5652 56.4969 71.5679 56.3908C71.6205 55.9839 71.739 55.164 71.8258 54.6139C71.948 53.8506 72.091 53.0969 72.2475 52.3445C72.4039 51.592 72.5677 50.8516 72.7437 50.11C72.7657 50.0161 72.751 49.9547 72.773 49.8584C72.9759 49.9523 73.7581 50.1233 73.7642 50.1329C73.642 51.0804 73.3169 52.5034 73.1702 53.4268C72.9857 54.5801 72.7962 55.7335 72.6325 56.8929C72.3452 56.7219 71.9651 56.6918 71.6376 56.6966Z" fill="black"/>
<path d="M41.2372 51.0431C43.8039 50.5531 46.3278 49.9222 48.9238 49.5839C51.6457 49.2288 54.4042 49.2228 57.1457 49.2745C59.9278 49.3298 62.7047 49.5347 65.4641 49.8885C67.7974 50.1883 70.3127 50.6783 72.4308 51.7245C72.6447 51.8304 73.51 50.0751 73.4685 50.0631C71.1145 49.3552 68.5185 49.1385 66.0887 48.8231C63.3242 48.4739 60.5423 48.275 57.7556 48.2271C54.9995 48.1694 52.2409 48.2091 49.5068 48.5787C46.8772 48.9454 44.2763 49.4896 41.7225 50.2076C41.478 50.275 41.3741 51.0154 41.2336 51.0431H41.2372Z" fill="black"/>
<path d="M72.6752 56.576C72.7803 56.021 72.7718 55.4347 72.9343 54.899C72.8793 54.899 72.8463 54.9098 72.795 54.9086C71.6021 54.8809 70.4104 54.8857 69.2188 54.8508C66.1559 54.7605 63.0954 54.6028 60.0326 54.5005C56.8401 54.3921 53.6391 54.3729 50.4503 54.586C47.7333 54.7678 44.9968 55.1157 42.3837 55.8994C42.4147 56.0622 42.4555 56.223 42.5059 56.381C42.5817 56.5869 42.6697 56.7891 42.7406 56.9962C48.0389 55.8657 53.4961 55.8188 58.9069 56.0439C61.9368 56.1703 64.9557 56.4159 67.9807 56.6218C69.154 56.7024 70.331 56.7422 71.5056 56.8096C71.8453 56.8289 72.2083 56.8361 72.575 56.8529C72.6117 56.7614 72.6422 56.6687 72.6752 56.576Z" fill="black"/>
<path d="M42.8445 50.2857C42.854 50.2631 42.8694 50.2433 42.8891 50.2283C42.9089 50.2133 42.9322 50.2036 42.9569 50.2003L43.2527 50.1485C43.4463 49.9774 43.6933 49.8764 43.953 49.862C43.9754 49.861 43.9977 49.8645 44.0187 49.8721C44.0396 49.8798 44.0589 49.8915 44.0752 49.9065C44.2207 49.6754 44.3673 49.4045 44.3392 49.2094C44.2708 48.7495 44.0679 48.3029 43.9273 47.8587C43.7648 47.3434 43.6242 46.8233 43.4886 46.3008C43.2303 45.3064 43.0062 44.3051 42.8163 43.297C42.6293 42.299 42.4937 41.2877 42.3458 40.2788C42.1893 40.1801 42.0366 40.0717 41.885 39.9574C41.8697 39.9847 41.8472 40.0075 41.8199 40.0234C41.7926 40.0393 41.7615 40.0477 41.7298 40.0477C41.6981 40.0477 41.6669 40.0393 41.6396 40.0234C41.6123 40.0075 41.5899 39.9847 41.5746 39.9574C41.5385 39.9668 41.5001 39.9637 41.4661 39.9486C41.432 39.9334 41.4043 39.9072 41.3876 39.8743C41.3387 39.7888 41.291 39.7021 41.247 39.6143C41.2596 41.4068 41.4038 43.196 41.6785 44.9681C41.8349 46.0203 42.03 47.0657 42.2639 48.1042C42.3861 48.6364 42.5303 49.1613 42.6843 49.6838C42.7418 49.8692 42.7907 50.0775 42.8445 50.2857Z" fill="black"/>
<path d="M72.0555 50.6878C72.0437 50.6626 72.0256 50.6407 72.003 50.6241C71.9804 50.6075 71.9539 50.5967 71.926 50.5927C71.8123 50.5758 71.6986 50.5566 71.585 50.5373C71.3579 50.3493 71.0746 50.2398 70.7783 50.2255C70.7273 50.2231 70.6773 50.2404 70.639 50.2737C70.4728 50.022 70.3029 49.7259 70.3359 49.514C70.4141 49.012 70.6488 48.5256 70.8101 48.0404C70.9971 47.4794 71.1584 46.9111 71.3149 46.3429C71.6131 45.2594 71.8722 44.1686 72.0898 43.067C72.3073 41.9655 72.4564 40.8771 72.6324 39.7767C72.8133 39.6696 72.9893 39.5516 73.1629 39.4252C73.1818 39.4553 73.2083 39.4802 73.2397 39.4974C73.2712 39.5146 73.3066 39.5237 73.3425 39.5237C73.3785 39.5237 73.4139 39.5146 73.4453 39.4974C73.4768 39.4802 73.5032 39.4553 73.5222 39.4252C73.5631 39.4356 73.6064 39.4324 73.6453 39.4161C73.6842 39.3997 73.7166 39.3712 73.7373 39.3349C73.7935 39.241 73.8473 39.1471 73.8999 39.0508C73.8848 41.0076 73.7177 42.9605 73.4 44.8922C73.2207 46.0391 72.9962 47.1788 72.7265 48.3113C72.5884 48.8916 72.4185 49.4646 72.2376 50.0341C72.1778 50.2339 72.124 50.4603 72.0555 50.6878Z" fill="black"/>
<path d="M50.7803 49.0592C50.795 46.1469 50.3684 42.6785 50.2413 39.7891L50.5701 49.1073L50.7803 49.0592Z" fill="black"/>
<path d="M50.1851 49.2189C50.5762 49.0953 50.9768 49.0027 51.3829 48.942C51.3902 48.5905 51.3829 48.2389 51.3829 47.8874C51.3645 46.9242 51.2912 45.9503 51.2093 44.9847C51.048 43.0982 50.7913 41.2105 50.5078 39.3384C50.5078 39.3492 50.2878 39.6165 50.2706 39.643C50.1802 39.7886 49.9859 40.033 49.9798 40.2124C49.9089 42.3048 50.0238 44.4105 50.1203 46.5017C50.1582 47.413 50.1851 48.3148 50.1851 49.2189Z" fill="black"/>
<path d="M63.2372 49.2783C63.2372 48.4006 63.225 47.5242 63.2079 46.6489L63.2274 49.2783H63.2372Z" fill="black"/>
<path d="M63.1566 39.8096C63.0979 42.0633 63.1651 44.3483 63.2079 46.649L63.1566 39.8096Z" fill="black"/>
<path d="M63.9693 49.3093C63.9693 49.0686 63.9547 48.8278 63.9498 48.593C63.931 47.6532 63.9033 46.7133 63.8667 45.7734C63.8227 44.6514 63.7615 43.5306 63.7127 42.4097C63.687 41.8306 63.6601 41.2528 63.6271 40.6749C63.6051 40.2872 63.6858 39.7178 63.4242 39.4023C63.2487 39.6394 63.0961 39.8921 62.9683 40.1572C62.6774 41.3539 62.6823 42.6264 62.6628 43.8544C62.6432 45.0824 62.6371 46.2851 62.6371 47.5011C62.6371 48.0846 62.6342 48.6685 62.6285 49.2528C63.0759 49.2684 63.522 49.2937 63.9693 49.3093Z" fill="black"/>
</g>
<path d="M30.502 8.04173L29.1591 8.28766L29.575 10.5585C30.4052 10.3866 30.9803 10.2415 31.3002 10.1234C32.0727 9.83102 32.4383 9.42055 32.3971 8.89198C32.3932 8.84901 32.3874 8.80639 32.3797 8.76413C32.3571 8.64117 32.3152 8.53169 32.254 8.43569C32.192 8.33584 32.0951 8.24041 31.9633 8.14939C31.8353 8.05767 31.6462 8.00096 31.396 7.97927C31.1458 7.95757 30.8478 7.97839 30.502 8.04173ZM31.179 11.2178C31.1482 11.2235 30.6737 11.3322 29.7555 11.5441L30.1904 13.9186L31.4814 13.6822C31.6351 13.654 31.7657 13.6301 31.8733 13.6104C31.984 13.5862 32.134 13.5488 32.3233 13.4982C32.5126 13.4476 32.674 13.3963 32.8074 13.344C32.9401 13.288 33.0838 13.216 33.2384 13.1281C33.3931 13.0402 33.513 12.9467 33.5981 12.8478C33.6871 12.7481 33.7549 12.6304 33.8015 12.4948C33.8513 12.3546 33.8618 12.2058 33.8329 12.0482C33.7604 11.6525 33.4844 11.3814 33.0049 11.2349C32.5292 11.0877 31.9206 11.082 31.179 11.2178ZM27.4829 7.33179L30.6067 6.7597C30.9564 6.69566 31.2802 6.66415 31.5783 6.66517C31.8801 6.66548 32.1391 6.69153 32.3551 6.74331C32.5703 6.79125 32.7661 6.86262 32.9423 6.95743C33.1216 7.04769 33.2671 7.14813 33.3787 7.25874C33.4935 7.36481 33.5927 7.48365 33.6763 7.61526C33.7593 7.74303 33.8209 7.86279 33.8613 7.97454C33.9009 8.08245 33.9309 8.19212 33.9513 8.30355C33.9991 8.56483 33.9766 8.84297 33.8837 9.13797C33.7908 9.43297 33.6537 9.69239 33.4723 9.91623C33.935 10.0142 34.3295 10.2278 34.6559 10.5572C34.9855 10.8821 35.191 11.2674 35.2727 11.7131C35.2959 11.8399 35.3064 11.973 35.3041 12.1124C35.305 12.2473 35.2847 12.4078 35.2434 12.5941C35.2021 12.7804 35.1363 12.9632 35.046 13.1425C34.9589 13.3173 34.8295 13.4999 34.6578 13.6902C34.4862 13.8805 34.2799 14.0552 34.039 14.2145C33.7975 14.37 33.4909 14.5174 33.1193 14.657C32.7516 14.7958 32.3391 14.9071 31.8819 14.9908L28.9828 15.5218L27.4829 7.33179Z" fill="black"/>
<path d="M44.7332 13.3865C42.5319 13.5927 41.2658 12.9345 40.9349 11.4119C40.8998 11.2464 40.8702 11.0354 40.8461 10.7787L40.839 10.7029L40.3347 5.31823L41.8048 5.18053L42.2971 10.4368C42.3245 10.7285 42.3746 10.971 42.4477 11.1642C42.5242 11.3532 42.6557 11.5214 42.8421 11.6687C43.2533 11.9951 43.8419 12.1224 44.6081 12.0506C45.1565 11.9992 45.6024 11.8594 45.9459 11.631C46.2894 11.4027 46.4951 11.1068 46.5631 10.7434C46.5976 10.5676 46.601 10.3318 46.5733 10.0363L46.081 4.77998L47.5395 4.64337C47.6531 5.85681 47.7462 6.8505 47.8187 7.62446C47.8947 8.39416 47.9429 8.88791 47.9633 9.10571C47.9834 9.31961 47.9996 9.49269 48.012 9.62492C48.0282 9.75679 48.0404 9.8655 48.0484 9.95107C48.0655 10.1339 48.0752 10.2997 48.0773 10.4486C48.083 10.5932 48.0692 10.7809 48.0359 11.0115C48.0065 11.2419 47.9533 11.4489 47.8763 11.6326C47.8029 11.8121 47.6837 12.0057 47.5188 12.2134C47.3577 12.4208 47.1586 12.5983 46.9213 12.7461C46.688 12.8935 46.3845 13.0259 46.011 13.1433C45.6376 13.2606 45.2116 13.3417 44.7332 13.3865Z" fill="black"/>
<path d="M58.1237 4.29011C58.9713 4.28772 59.7257 4.4516 60.3868 4.78176C61.0479 5.11192 61.5688 5.59482 61.9495 6.23047C62.3302 6.8622 62.5217 7.59799 62.5241 8.43783C62.5265 9.28939 62.3431 10.0458 61.9739 10.707C61.6046 11.3643 61.0846 11.8755 60.4138 12.2407C59.7429 12.6059 58.972 12.7897 58.1009 12.7922C57.5266 12.7938 56.9815 12.7074 56.4654 12.5331C55.9492 12.3549 55.4856 12.0964 55.0745 11.7578C54.6673 11.4152 54.3418 10.9708 54.0981 10.4246C53.8582 9.87838 53.7373 9.26153 53.7354 8.57404C53.733 7.71857 53.9183 6.96609 54.2915 6.31659C54.6647 5.66319 55.1828 5.16368 55.8459 4.81805C56.5089 4.46851 57.2682 4.29254 58.1237 4.29011ZM58.8954 5.74692C58.6256 5.67737 58.3502 5.64299 58.0689 5.64379C57.7877 5.64459 57.5143 5.68052 57.2489 5.75158C56.9835 5.81874 56.7279 5.92688 56.4822 6.07602C56.2405 6.22123 56.0281 6.40152 55.8451 6.61689C55.6621 6.83225 55.5164 7.09829 55.4079 7.415C55.2994 7.72781 55.2457 8.07367 55.2468 8.45257C55.2493 9.35491 55.5307 10.0787 56.0908 10.624C56.651 11.1693 57.349 11.4408 58.1849 11.4384C58.5326 11.4374 58.8684 11.3798 59.1922 11.2656C59.5201 11.1514 59.8223 10.9826 60.099 10.7592C60.3757 10.5357 60.5975 10.2324 60.7644 9.84907C60.9313 9.46578 61.0141 9.03 61.0127 8.54172C61.0115 8.14329 60.9519 7.78017 60.8338 7.45238C60.7157 7.12068 60.5587 6.84573 60.3627 6.62754C60.1707 6.40933 59.9456 6.22442 59.6873 6.07281C59.433 5.92118 59.169 5.81255 58.8954 5.74692Z" fill="black"/>
<path d="M68.0186 4.7149L69.6413 4.85763L73.7092 11.6386L74.2699 5.26477L75.7408 5.39415L75.0112 13.6883L73.371 13.544L69.3216 6.75293L68.7599 13.1384L67.2891 13.009L68.0186 4.7149Z" fill="black"/>
<path d="M85.7018 6.90822C86.536 7.05856 87.2485 7.35566 87.8393 7.79951C88.4301 8.24336 88.8555 8.8122 89.1155 9.50603C89.3761 10.196 89.432 10.9543 89.283 11.7808C89.132 12.6189 88.8153 13.3298 88.333 13.9137C87.8514 14.4937 87.2478 14.9029 86.5221 15.1413C85.7965 15.3796 85.005 15.4216 84.1477 15.2671C83.5826 15.1652 83.0619 14.9821 82.5857 14.7176C82.1101 14.4494 81.7006 14.1116 81.3572 13.7044C81.0184 13.2941 80.7783 12.7983 80.6369 12.2171C80.4994 11.6367 80.4916 11.0081 80.6136 10.3315C80.7653 9.48964 81.0832 8.78286 81.5672 8.21121C82.052 7.63572 82.6516 7.23771 83.3661 7.01719C84.0813 6.79282 84.8599 6.7565 85.7018 6.90822ZM86.1984 8.48022C85.9456 8.36321 85.6808 8.27977 85.404 8.22989C85.1273 8.18001 84.8519 8.16611 84.578 8.1882C84.3048 8.20644 84.034 8.26678 83.7655 8.36922C83.5015 8.4685 83.2601 8.60758 83.0413 8.78646C82.8225 8.96533 82.6313 9.20077 82.4675 9.49276C82.3044 9.78091 82.1893 10.1114 82.1221 10.4843C81.9621 11.3724 82.1084 12.135 82.5612 12.7723C83.0139 13.4096 83.6516 13.8023 84.4743 13.9506C84.8164 14.0123 85.1571 14.0161 85.4963 13.9621C85.8393 13.9088 86.167 13.7972 86.4794 13.6273C86.7919 13.4573 87.0647 13.1989 87.2979 12.8519C87.5311 12.505 87.691 12.0912 87.7776 11.6107C87.8483 11.2186 87.855 10.8507 87.7979 10.507C87.7415 10.1594 87.6365 9.86068 87.4831 9.61076C87.3335 9.36153 87.1454 9.13909 86.9187 8.94343C86.6958 8.74847 86.4557 8.59406 86.1984 8.48022Z" fill="black"/>
<path d="M26.0316 21.3281C26.0071 21.4503 25.9876 21.7694 25.9824 22.0292C25.9737 22.2932 25.9548 22.5272 25.9372 22.548C25.9161 22.5731 25.8888 22.8 25.8711 23.0493C25.8403 23.6017 25.9464 24.9048 26.0168 24.8213C26.0449 24.7879 26.1435 24.7638 26.2364 24.7635L26.4074 24.7718L26.3825 24.5223C26.3701 24.3763 26.3165 24.2455 26.2713 24.2146C26.1413 24.1407 26.1197 24.0226 26.2111 23.914C26.2639 23.8513 26.2577 23.4105 26.1814 22.461C26.1159 21.6847 26.0513 21.1948 26.0316 21.3281Z" fill="black"/>
<path d="M23.5802 20.1069C23.5379 20.1572 23.3669 20.9301 23.3143 21.3157C23.2064 22.0987 23.1639 23.1017 23.2243 23.2171C23.2653 23.2874 23.2649 23.373 23.226 23.4191C23.1378 23.5239 23.1671 23.6847 23.2752 23.6754C23.3833 23.6662 23.5043 23.8541 23.4373 23.9337C23.4055 23.9714 23.3316 24.0167 23.2641 24.0458C23.1664 24.0853 23.1485 24.1491 23.1383 24.4843C23.1306 24.7572 23.1564 24.9222 23.2254 25.0018C23.3125 25.111 23.3116 25.1461 23.2163 25.2592C23.0787 25.4227 23.0868 25.7447 23.2251 25.8612C23.3131 25.9353 23.3115 25.9626 23.222 26.052C23.0386 26.2272 23.0701 26.9127 23.2629 27.075C23.376 27.1703 23.378 27.1935 23.2811 27.334C23.2225 27.4207 23.1746 27.5881 23.1726 27.7011C23.1717 28.0083 23.118 28.1996 22.961 28.4541C22.777 28.7577 22.6292 28.8481 22.3887 28.8105C21.9633 28.7459 21.4724 28.1892 21.2821 27.5562C21.1573 27.143 21.0513 25.9506 21.025 24.6891C21.0161 24.1299 21.0077 23.5785 21.002 23.4662C20.9963 23.3539 21.0102 23.2438 21.0279 23.2229C21.0455 23.2019 21.0411 23.1051 21.0206 23.0019C20.9924 22.8993 20.9338 22.3055 20.8803 21.6802C20.819 21.0555 20.7684 20.5543 20.7542 20.5711C20.7436 20.5837 20.6518 20.9649 20.5505 21.4168C20.3932 22.1225 20.3806 22.248 20.4653 22.2835C20.5661 22.3254 20.6389 22.4941 20.5789 22.5654C20.5647 22.5822 20.4966 22.6036 20.4229 22.606C20.3036 22.6201 20.293 22.6327 20.2619 22.8142C20.2113 23.0869 20.2247 23.3346 20.2918 23.3911C20.3211 23.4158 20.311 23.4789 20.2686 23.5292C20.1528 23.6752 20.1432 24.1543 20.2562 24.2924C20.3342 24.3868 20.3305 24.4337 20.2458 24.5343C20.1011 24.7062 20.0988 24.998 20.2322 25.1032C20.328 25.1767 20.3264 25.204 20.2141 25.3459C20.0807 25.5129 20.0438 25.7182 20.142 25.7292C20.1735 25.7343 20.2174 25.7928 20.2465 25.8603C20.2769 25.9432 20.2626 26.0027 20.1964 26.0473C20.0795 26.1351 20.0276 26.6645 20.12 26.8355C20.1526 26.8988 20.1557 26.9802 20.1239 27.0179C20.0922 27.0556 20.0641 27.1824 20.0705 27.3024C20.065 27.5557 19.9637 28.0076 19.8644 28.2106C19.6815 28.5724 19.2628 28.6783 18.8747 28.4589C18.6907 28.3541 18.4153 27.9073 18.3738 27.6503C18.3582 27.5583 18.3313 27.4712 18.3103 27.4535C18.281 27.4288 18.1173 25.7436 18.1456 25.7101C18.1491 25.7059 18.1438 25.508 18.1324 25.2835C18.0936 24.7852 18.0822 24.1524 18.0903 23.2923C18.095 22.9381 18.0855 22.4645 18.0741 22.2399C18.0585 22.0118 18.0574 21.8175 18.0715 21.8007C18.1068 21.7588 18.0081 20.5152 17.9695 20.5185C17.9001 20.5245 17.74 21.3354 17.7106 21.8551C17.6819 22.3825 17.6826 22.3902 17.8553 22.4998C18.0077 22.5995 18.0215 22.6255 17.958 22.7009C17.9192 22.7471 17.8565 22.7874 17.8208 22.7788C17.7185 22.7643 17.6505 22.879 17.6339 23.0943C17.6198 23.2472 17.6483 23.3069 17.7601 23.3868C17.897 23.4878 17.8977 23.4955 17.7517 23.6519C17.631 23.7867 17.6125 23.8427 17.659 23.9321C17.7013 24.0179 17.6841 24.0893 17.6065 24.1815C17.4624 24.3611 17.4171 24.8316 17.5389 24.8912C17.6648 24.9542 17.6533 25.138 17.5141 25.1927C17.4277 25.2273 17.4021 25.2917 17.387 25.4797C17.3698 25.6872 17.385 25.7287 17.488 25.751C17.6779 25.7891 17.6748 25.9799 17.4785 26.094C17.349 26.1712 17.3327 26.2076 17.3488 26.3501C17.3609 26.4463 17.4165 26.5504 17.4787 26.5956C17.5773 26.6571 17.5757 26.6845 17.467 26.8221C17.3017 27.0268 17.2942 27.5291 17.4492 27.6597C17.5665 27.7585 17.5526 27.8685 17.4174 27.9696C17.3111 28.0448 17.2933 29.1546 17.385 29.8622C17.4652 30.4813 17.6943 31.2044 17.9446 31.6301C18.1851 32.0332 18.7367 32.5264 19.1951 32.7476C19.8276 33.051 20.7145 33.5543 20.8547 33.6939C20.9776 33.8117 20.9934 33.8608 20.9383 33.9433C20.8902 34.0175 20.8298 34.0382 20.7226 34.0124L20.5748 33.9668L20.6595 34.2745C20.8398 34.9278 21.1266 38.4145 21.0429 38.9816C21.0363 39.0405 21.0385 39.157 21.0576 39.2448C21.0726 39.329 21.0616 39.4272 21.0333 39.4607C21.0051 39.4942 20.9965 39.53 21.0174 39.5476C21.0719 39.5935 21.049 41.1431 20.9925 41.2101C20.9819 41.2227 20.9705 41.2704 20.9709 41.3209C20.9671 41.6401 20.9501 41.9409 20.8937 42.7818C20.8608 43.3057 20.8153 44.0912 20.7899 44.5211C20.7383 45.5093 20.5703 46.908 20.2937 48.6738C20.2189 49.1624 20.12 49.9603 20.0718 50.4427C20.0279 50.9286 19.9113 52.0196 19.8205 52.8673C19.5827 54.9953 19.5557 55.4526 19.6412 56.2696C19.7232 57.0908 19.8435 57.5432 20.1699 58.3123C20.4464 58.9535 20.5988 59.1893 20.9263 59.4723C21.4172 59.8928 22.0688 59.9186 22.3971 59.5288C22.5736 59.3192 22.8374 58.6316 22.9469 58.0934C23.0895 57.3968 23.4399 54.2675 23.4698 53.3901C23.4882 52.9685 23.5111 52.601 23.5239 52.5688C23.5588 52.4764 23.5659 50.6054 23.5326 50.1261C23.517 49.8981 23.5117 49.7002 23.5258 49.6834C23.54 49.6667 23.5109 49.327 23.4688 48.9262C23.4225 48.5219 23.3221 47.4845 23.2368 46.6247C23.1551 45.7607 23.0494 44.6615 22.9972 44.1877C22.9075 43.3672 22.7452 41.0169 22.6869 39.6998C22.6704 39.3707 22.6425 38.681 22.6143 38.1701C22.523 36.3309 22.6107 35.4018 22.9377 34.7244C23.2022 34.1806 23.4936 33.8601 24.121 33.4213C24.4146 33.2172 24.8141 32.8874 25.008 32.6996C25.2012 32.5042 25.5496 32.1671 25.7871 31.9445C26.1685 31.5851 26.2385 31.4935 26.3881 31.1968C26.7356 30.4865 26.8146 29.5932 26.6843 27.8429L26.5986 26.6604L26.4204 26.6679C26.1804 26.6807 26.026 26.5579 26.1319 26.4321C26.1743 26.3818 26.2826 26.3297 26.3752 26.3218L26.5409 26.3037L26.4712 25.6719C26.4133 25.0859 26.4023 25.0479 26.2843 25.0775C26.2196 25.0947 26.1166 25.0725 26.058 25.0231C26.0035 24.9772 25.9468 24.9509 25.9327 24.9677C25.9151 24.9887 25.9027 25.2075 25.8971 25.4607C25.8876 25.8037 25.9107 25.9378 25.9904 26.0049C26.0784 26.079 26.0775 26.114 25.9899 26.2266C25.9158 26.3146 25.8504 26.5963 25.7882 27.0954C25.6411 28.2396 25.4973 28.6486 25.173 28.8125C24.8009 29.0078 24.5151 28.8029 24.3371 28.2232C24.2068 27.7911 24.1608 27.344 24.0842 25.6319C24.0561 24.9849 23.9975 24.255 23.9525 24.0023C23.8646 23.5199 23.7842 22.5352 23.762 21.5494C23.7434 20.9678 23.6297 20.0482 23.5802 20.1069ZM24.1635 30.5557C24.1595 30.6455 24.1383 30.6706 24.019 30.6847C23.8652 30.7057 22.7304 30.5309 22.6634 30.4745C22.6382 30.4533 22.6032 30.4524 22.582 30.4776C22.5643 30.4985 22.5257 30.5019 22.5006 30.4807C22.4754 30.4595 22.3724 30.4372 22.2785 30.4298C22.1803 30.4187 21.8523 30.3575 21.5552 30.2935C21.254 30.2261 20.7676 30.1317 20.4712 30.0755C20.017 29.994 19.9204 29.9556 19.9054 29.8713C19.8966 29.8138 19.9096 29.7388 19.9343 29.7094C19.9979 29.634 20.6898 29.7223 21.5531 29.9049C21.9056 29.9796 22.4347 30.0742 22.7256 30.1114C23.0207 30.1522 23.2695 30.1969 23.2863 30.211C23.3072 30.2287 23.4811 30.2604 23.6738 30.2866C24.0594 30.3391 24.165 30.3922 24.1635 30.5557ZM22.4628 30.9933C22.4899 31.0377 22.4699 31.121 22.4275 31.1713C22.3393 31.2761 21.8582 31.2435 21.0867 31.0881C20.7342 31.0134 20.7055 30.9964 20.6956 30.8806C20.6791 30.6876 20.8441 30.6618 21.4173 30.772C21.6977 30.8218 22.0327 30.8747 22.1617 30.8831C22.2908 30.8914 22.4044 30.9011 22.4086 30.9047C22.4127 30.9082 22.4357 30.949 22.4628 30.9933ZM23.1345 32.1178C23.0675 32.1974 22.9587 32.1989 22.5683 32.1353C22.0665 32.0422 21.9219 31.9419 22.0666 31.77C22.1477 31.6736 22.307 31.6716 22.6839 31.7598C23.0805 31.8502 23.2475 31.9836 23.1345 32.1178ZM18.7445 30.391C18.7751 30.8394 19.1465 31.453 19.6619 31.887C19.884 32.0741 20.8143 32.5852 20.9146 32.5766C20.9574 32.5768 21.1517 32.7118 21.3487 32.8777C21.6546 33.1353 21.7152 33.2078 21.7174 33.3243C21.7205 33.4057 21.6856 33.4981 21.642 33.533C21.5729 33.5894 21.4995 33.5491 21.0418 33.1995C20.7512 32.9834 20.4541 32.7834 20.3742 32.7591C20.2979 32.7307 20.037 32.5898 19.7986 32.4391C18.7428 31.7793 18.0382 30.4982 18.4902 30.055C18.5763 29.9699 18.7331 30.1664 18.7445 30.391ZM21.5816 36.5984C21.6213 36.7894 21.64 37.235 21.6269 37.5822C21.6043 38.1363 21.6158 38.2247 21.7331 38.3235C21.8505 38.4223 21.8524 38.4455 21.7501 38.567C21.6442 38.6928 21.6347 38.7636 21.6026 39.5246C21.6035 39.6256 21.6196 39.632 21.7747 39.6265C21.9838 39.6163 22.1333 39.7279 22.1108 39.8737C22.0949 39.9606 22.0351 39.9891 21.8498 40.005C21.6575 40.0293 21.6054 40.0571 21.586 40.1482C21.5414 40.3542 21.6027 40.5706 21.741 40.6871C21.8758 40.8077 21.8444 40.8959 21.6439 41.0065C21.5954 41.0301 21.57 41.1878 21.5737 41.413L21.5816 41.7778L21.7709 41.8083C21.8774 41.8263 21.9747 41.8724 21.985 41.9026C22.021 42.0045 21.8511 42.1552 21.696 42.1608L21.5487 42.1656L21.5562 42.3439C21.5623 42.5066 21.5749 42.5172 21.72 42.532C21.9051 42.5589 22.0537 42.7055 21.9964 42.8077C21.9723 42.8447 21.8634 42.8891 21.7482 42.9068L21.544 42.9282L21.5353 43.1C21.5289 43.2522 21.5422 43.2705 21.6341 43.2548C21.6917 43.246 21.7835 43.2731 21.8379 43.319C21.9176 43.3861 21.9209 43.4247 21.8432 43.5169C21.7938 43.5756 21.6981 43.6382 21.6363 43.6435C21.5366 43.6598 21.5209 43.704 21.5249 44.0225C21.5303 44.3136 21.5482 44.386 21.6289 44.3752C21.8724 44.3582 21.885 44.6409 21.6445 44.7394C21.4829 44.8038 21.4385 44.967 21.4206 45.5752C21.4133 45.7624 21.3868 45.998 21.3638 46.0933C21.3307 46.2517 21.3131 46.2727 21.2127 46.2813C21.1432 46.2872 21.0782 46.2539 21.0462 46.1984C20.9835 46.1026 21.009 45.4005 21.1 44.51C21.1267 44.2316 21.1329 43.85 21.1199 43.6528C21.1034 43.4598 21.1008 43.2929 21.1114 43.2803C21.122 43.2677 21.1229 43.0965 21.1183 42.9064C21.1095 42.7127 21.1126 42.3858 21.134 42.1818C21.1625 41.8333 21.1889 40.96 21.2242 39.3277C21.2339 38.9419 21.2461 38.3576 21.257 38.03C21.2636 37.6989 21.2538 37.1748 21.2386 36.8611C21.2157 36.5481 21.215 36.2682 21.2327 36.2473C21.2715 36.2012 21.4407 36.1789 21.4826 36.2141C21.4952 36.2247 21.5413 36.3997 21.5816 36.5984ZM21.2487 47.5653C21.2436 47.7329 21.1893 48.3247 21.1239 48.8786C21.0628 49.436 21.0011 50.079 20.9936 50.3091C20.9861 50.5392 20.9289 51.279 20.8622 51.9535C20.7997 52.6316 20.7363 53.4809 20.7287 53.847C20.717 54.2097 20.7048 54.5218 20.7019 54.5337C20.7033 54.5491 21.0017 54.6285 21.3709 54.7174C22.0736 54.8865 22.1828 54.9354 22.1812 55.0989C22.1803 55.27 22.0484 55.2736 21.4873 55.1234C20.6712 54.9019 20.6902 54.8963 20.7219 55.2669C20.7439 55.615 20.7836 55.6699 21.034 55.6873C21.2773 55.7131 21.7138 55.8156 21.8999 55.9007C22.0168 55.949 22.06 55.9997 22.0728 56.1036C22.0829 56.1766 22.0776 56.251 22.0635 56.2677C22.0459 56.2887 21.7936 56.2481 21.5 56.18C21.2099 56.1077 20.9373 56.0572 20.9036 56.0718C20.8354 56.0932 20.8508 56.228 20.9415 56.469C20.9816 56.5745 21.0431 56.612 21.2827 56.6847C21.7694 56.8296 21.8051 57.1104 21.334 57.0575L21.1103 57.0339L21.2138 57.2428C21.2784 57.3617 21.4819 57.6047 21.7144 57.822C22.0194 58.1147 22.1023 58.2203 22.09 58.303C22.0308 58.7475 21.005 57.8479 20.6732 57.0598C20.2527 56.0538 20.1867 54.4652 20.4567 52.0778C20.5097 51.6066 20.5729 50.9363 20.593 50.5807C20.6545 49.5722 20.9181 47.337 20.9852 47.2574C21.1405 47.0729 21.2527 47.2033 21.2487 47.5653ZM21.8426 52.0055C21.7358 52.1663 21.4392 52.1529 21.4092 51.9844C21.3805 51.8313 21.4961 51.728 21.6721 51.7401C21.872 51.758 21.9388 51.8572 21.8426 52.0055ZM22.1374 52.7695C22.1352 52.9253 22.0207 52.9506 21.648 52.866C21.4616 52.8237 21.2842 52.7961 21.2575 52.8023C21.1508 52.827 20.9938 52.6733 21.007 52.5555C21.0258 52.4567 21.0631 52.4379 21.277 52.439C21.5569 52.4383 21.9689 52.5274 22.0695 52.612C22.1072 52.6438 22.1405 52.7148 22.1374 52.7695ZM22.0182 53.8297C21.9769 53.9382 21.6527 53.966 21.2616 53.8946L20.9771 53.8413L20.9471 53.6727C20.9171 53.5042 20.9171 53.5042 21.0539 53.5119C21.784 53.5465 22.0802 53.6455 22.0182 53.8297Z" fill="black"/>
<path d="M90.5425 21.4233C90.4885 21.9581 90.4278 22.5452 90.4101 22.7261C90.3845 22.9077 90.3711 23.1718 90.3774 23.3144C90.3881 23.4606 90.3869 23.807 90.3802 24.0982C90.3412 25.499 90.3349 26.1524 90.3538 26.3415C90.3885 26.6087 90.3933 27.1336 90.3807 28.1219C90.3689 29.0384 90.3681 29.4285 90.3776 29.6027C90.4221 30.247 90.3926 31.9016 90.3114 33.7166C90.2855 34.2525 90.2654 34.8078 90.263 34.9433C90.2579 35.1707 90.2343 35.571 90.1582 36.5219C90.1429 36.7264 90.1263 37.1181 90.118 37.3935C90.1047 37.976 90.0771 39.1329 90.061 39.4091C90.0527 39.605 90.0625 39.9025 90.0949 40.3848C90.126 40.8155 90.1272 41.3447 90.1028 41.976C90.0906 42.2916 90.0996 42.5812 90.1193 42.6191C90.1434 42.6605 90.2963 42.677 90.4653 42.6561C90.7447 42.6242 91.2018 42.6581 91.8847 42.7609L92.1877 42.8062L92.1389 42.5564C92.1117 42.4039 92.1396 42.0867 92.2224 41.7202L92.3504 41.1303L92.7551 40.6003C93.0436 40.2212 93.2843 39.9623 93.5988 39.6841C94.2107 39.1572 94.6091 38.6438 94.9968 37.9045C95.3247 37.2827 95.3266 37.2626 95.7147 35.5323C95.8456 34.9302 96.0024 33.7126 95.9834 33.3642C95.9834 33.2846 96.0114 33.047 96.0504 32.8401C96.2372 31.8424 96.2237 29.8776 96.0227 28.5844C95.886 27.7344 95.8466 27.5791 95.8076 27.7064C95.7922 27.7517 95.7177 27.7632 95.6279 27.7403C95.4273 27.6847 95.371 27.6386 95.3315 27.4834C95.3048 27.3746 95.3146 27.3537 95.4119 27.3321C95.4742 27.3179 95.5814 27.3549 95.6507 27.4117C95.7201 27.4684 95.7871 27.5015 95.8048 27.4798C95.8395 27.4286 95.6318 26.6653 95.4525 26.1858C95.2673 25.6869 94.8275 24.7916 94.5122 24.266C94.0827 23.5527 93.907 23.3076 93.2642 22.4924C93.1831 22.397 93.0235 22.1941 92.9088 22.0424C92.7681 21.8694 92.3914 21.525 91.8452 21.0781C91.065 20.4398 90.9755 20.3811 90.8329 20.3874C90.7419 20.3925 90.6638 20.4083 90.6532 20.4213C90.6426 20.4343 90.5921 20.8851 90.5425 21.4233ZM91.076 21.1073C91.1336 21.1254 91.1738 21.2886 91.1931 21.6011C91.2069 21.8584 91.2297 22.1665 91.238 22.2891C91.2463 22.4116 91.2424 23.009 91.2286 23.6273C91.2184 24.2412 91.216 24.934 91.2231 25.1641C91.2574 25.7855 91.2507 26.2359 91.1956 26.8782C91.1676 27.1954 91.153 27.567 91.1621 27.6974C91.1719 27.8358 91.1664 27.9398 91.1447 27.9221C91.1274 27.9079 91.1089 28.0013 91.105 28.1211C91.0975 28.2452 91.0754 28.6613 91.0537 29.0416C91.0321 29.4218 91.0211 29.7891 91.036 29.8592C91.0467 29.9258 91.0502 30.1603 91.0479 30.3754C91.0498 30.5941 91.0494 30.7892 91.0518 30.8128C91.0774 31.0292 91.1275 32.445 91.1322 33.0495C91.1346 33.4711 91.1441 33.9637 91.1465 34.1465C91.1532 34.3329 91.1323 34.8802 91.0937 35.3697C91.0586 35.8547 91.0389 36.2945 91.0437 36.3418C91.0563 36.3883 91.0531 36.516 91.0362 36.6251C90.9842 37.0602 90.9274 38.1643 90.9621 38.1927C90.9795 38.2068 90.9791 38.2427 90.9578 38.2687C90.9365 38.2947 90.9196 38.4835 90.9243 38.69C90.9212 38.8972 90.9101 39.2645 90.8865 39.5056C90.8495 39.9312 90.8026 40.9349 90.8077 41.3443C90.8073 41.4598 90.7762 41.5863 90.7407 41.6296C90.6485 41.7423 90.4937 41.6662 90.4649 41.498C90.4428 41.3569 90.4913 40.0506 90.5472 39.257C90.5708 38.9362 90.5909 38.3014 90.5882 37.8361C90.587 37.7844 90.6165 37.4034 90.6543 36.9857C90.6922 36.568 90.7178 36.1475 90.7083 36.053C90.6989 35.9584 90.7134 35.6664 90.7304 35.398C90.8222 34.2068 90.8261 33.6094 90.7279 31.5537C90.7074 31.11 90.6912 30.5106 90.6944 30.2237C90.7011 29.9325 90.6971 29.6543 90.6889 29.6114C90.6621 29.5026 90.7015 28.8619 90.7661 28.155C90.7964 27.8614 90.8098 27.5974 90.7917 27.5753C90.7814 27.5524 90.7854 27.5123 90.8031 27.4906C90.8244 27.4646 90.835 27.372 90.8255 27.2774C90.8161 27.1828 90.8291 26.9547 90.8512 26.7773C90.8941 26.3711 90.9094 25.5298 90.8763 24.8804C90.8696 24.6144 90.8735 23.9374 90.8885 23.3708C90.9208 22.4203 90.9078 21.8525 90.8502 21.4363C90.8227 21.2401 90.9444 21.0647 91.076 21.1073ZM91.6845 21.6992C91.8858 21.7626 93.0727 22.806 93.3167 23.1358C93.4589 23.3246 93.481 23.3861 93.4187 23.4798C93.351 23.5981 93.351 23.5981 93.0802 23.3187C92.934 23.1701 92.5053 22.7832 92.1309 22.4624C91.4819 21.9025 91.4086 21.8063 91.5036 21.6814C91.5178 21.6641 91.5982 21.672 91.6845 21.6992ZM92.2046 22.7615C92.5877 23.0894 92.6519 23.2143 92.4643 23.249C92.3705 23.2663 92.2819 23.2155 92.0722 23.0295C91.7534 22.7469 91.6675 22.6043 91.7743 22.518C91.837 22.468 91.904 22.5011 92.2046 22.7615ZM92.0541 23.3258C92.3162 23.5185 92.3808 23.6871 92.2303 23.7738C92.166 23.8081 92.1026 23.7707 91.9426 23.6036C91.5663 23.2234 91.6463 23.0283 92.0541 23.3258ZM91.7879 29.2587C92.0152 29.423 92.0653 29.5652 91.9152 29.6161C91.8344 29.6441 91.7638 29.6153 91.6669 29.5215C91.397 29.25 91.4884 29.0498 91.7879 29.2587ZM91.7832 29.7686C91.9707 29.9727 91.994 30.0858 91.8379 30.1173C91.6074 30.1603 91.3568 29.8033 91.527 29.6748C91.6125 29.6145 91.6492 29.6228 91.7832 29.7686ZM91.7934 30.3486C91.9897 30.4802 92.0574 30.6804 91.9254 30.7533C91.8655 30.7911 91.7871 30.7632 91.6571 30.6568C91.4447 30.483 91.4269 30.4251 91.5471 30.3136C91.609 30.2556 91.6736 30.2651 91.7934 30.3486ZM91.6862 30.9484C91.7891 30.9819 92.1173 31.359 92.1276 31.4614C92.1323 31.5087 92.0984 31.5678 92.0492 31.5926C91.9779 31.6356 91.931 31.6045 91.7442 31.4082C91.6161 31.2817 91.5081 31.1572 91.4971 31.1265C91.4699 31.0536 91.6043 30.9247 91.6862 30.9484ZM95.3591 26.5652C95.4044 26.5806 95.4754 26.6531 95.5183 26.7244C95.6007 26.8714 95.499 26.9691 95.3327 26.8982C95.1341 26.8226 95.1656 26.501 95.3591 26.5652ZM91.5976 31.7731C91.6729 31.7696 91.7639 31.8441 91.9298 32.0304C92.2037 32.3413 92.2242 32.387 92.1284 32.5041C92.0575 32.5908 92.0445 32.5801 91.745 32.2917C91.5771 32.1254 91.4301 31.969 91.4191 31.9382C91.3911 31.8575 91.4865 31.7763 91.5976 31.7731ZM92.1111 33.1267C92.5465 33.5408 92.604 33.6386 92.4681 33.7517C92.3621 33.8458 92.1268 33.6823 91.7127 33.2422C91.3868 32.8887 91.3454 32.7535 91.559 32.7401C91.6737 32.7326 91.7501 32.7807 92.1111 33.1267ZM95.7173 28.4358C95.9175 28.5272 96.0078 28.753 95.8911 28.8602C95.7162 29.021 95.3599 28.6427 95.5124 28.4563C95.5585 28.3999 95.6295 28.3929 95.7173 28.4358ZM91.9554 34.1571C92.4279 34.5437 92.5406 34.7155 92.3787 34.8073C92.2467 34.8802 92.1832 34.8428 91.7939 34.4519C91.3648 34.0212 91.3458 33.9913 91.438 33.8786C91.5054 33.7962 91.535 33.8131 91.9554 34.1571ZM95.6441 29.3744C95.6902 29.3977 95.7887 29.5072 95.8671 29.6148C96.0429 29.8599 95.9444 29.9892 95.7012 29.8264C95.4415 29.6574 95.3592 29.5104 95.4687 29.4119C95.5199 29.367 95.598 29.3512 95.6441 29.3744ZM91.8845 34.8806C92.4138 35.357 92.6155 35.5438 92.6143 35.5718C92.6159 35.5875 92.5647 35.6325 92.4969 35.6711C92.3763 35.7389 92.3598 35.7326 91.963 35.3862C91.4188 34.9193 91.3955 34.8858 91.5299 34.7569C91.6315 34.6592 91.6438 34.6619 91.8845 34.8806ZM91.5216 35.5895C91.5705 35.6006 91.7482 35.746 91.924 35.9115C92.0997 36.077 92.3752 36.324 92.5407 36.4667C92.8587 36.7413 92.8768 36.843 92.6207 36.9084C92.5005 36.9403 92.4709 36.9234 91.9188 36.3776C91.6012 36.0671 91.3348 35.7913 91.3246 35.7684C91.2958 35.6798 91.4345 35.5545 91.5216 35.5895ZM91.4007 36.1708C91.4803 36.1708 91.5981 36.2744 91.9196 36.6243C92.1435 36.8726 92.5166 37.2213 92.7456 37.4014C93.0987 37.6685 93.1617 37.7418 93.1511 37.8344C93.1223 38.0642 92.9761 37.9952 92.307 37.4333C91.5287 36.7748 91.2675 36.5104 91.2525 36.3607C91.2375 36.211 91.2694 36.172 91.4007 36.1708ZM91.3495 37.1709C91.3818 37.1756 91.6332 37.3813 91.9094 37.6362C92.3389 38.0311 92.3977 38.1008 92.3445 38.1658C92.2168 38.3219 92.0994 38.262 91.6797 37.8463C91.4669 37.6288 91.2663 37.414 91.2415 37.3648C91.184 37.267 91.2446 37.1575 91.3495 37.1709ZM91.7014 38.4212C92.294 38.935 92.3413 39.0099 92.0923 39.0666C91.995 39.0883 91.9394 39.0501 91.5907 38.7069C91.1572 38.2727 91.1201 38.2206 91.2269 38.1343C91.2931 38.08 91.3609 38.1209 91.7014 38.4212ZM91.2652 38.7952C91.3294 38.8405 91.4082 38.9122 92.0013 39.4698C92.326 39.7716 92.3811 39.8457 92.3445 39.917C92.2507 40.0935 92.023 39.9651 91.5446 39.4796C91.305 39.233 91.0993 39.0068 91.0882 38.976C91.0603 38.8953 91.2053 38.7534 91.2652 38.7952ZM91.7554 40.354C92.1901 40.6807 92.287 40.7745 92.2913 40.8576C92.2905 41.0089 92.2239 41.0196 91.9654 40.9021C91.7192 40.7875 91.1572 40.2626 91.1229 40.1188C91.0824 39.9119 91.227 39.9651 91.7554 40.354ZM91.3744 40.6429C91.6053 40.8029 91.6348 40.979 91.4378 40.9987C91.2881 41.0137 91.2195 40.9648 91.1131 40.7765C90.9878 40.5582 91.1434 40.4829 91.3744 40.6429Z" fill="black"/>
<path d="M89.5515 43.5069C89.6028 43.6211 89.678 43.6972 89.8041 43.7641C90.2147 43.9698 91.8129 44.1124 92.5635 44.0175C92.9638 43.9615 93.1636 43.7704 93.0639 43.5296C92.9922 43.3697 92.6734 43.1667 92.474 43.1628C92.3507 43.1632 92.3507 43.1632 92.3799 43.2956C92.398 43.3972 92.3826 43.4426 92.3133 43.4654C92.2053 43.5001 92.2053 43.5001 92.0205 43.2838C91.9437 43.192 91.8282 43.112 91.7305 43.0899L91.5709 43.0462L91.6679 43.2196C91.762 43.4051 91.7215 43.5167 91.5587 43.521C91.487 43.5202 91.424 43.4469 91.316 43.2428C91.1489 42.9252 91.054 42.8909 91.0764 43.1553C91.0796 43.2665 91.0524 43.3528 90.9996 43.3819C90.8869 43.4489 90.8124 43.3807 90.7632 43.1668C90.7257 42.9914 90.7171 42.9843 90.578 42.9863C90.431 42.9891 90.4274 42.9934 90.4247 43.1648C90.4196 43.4718 90.1386 43.4879 90.0807 43.1873C90.0618 43.0777 90.033 43.0687 89.8569 43.0982C89.5791 43.1459 89.4637 43.3047 89.5515 43.5069Z" fill="black"/>
<path d="M89.7355 44.6711C89.8037 44.7558 89.9625 44.8713 90.0834 44.9268C90.3455 45.0399 91.0197 45.2152 91.1659 45.2046C91.2131 45.1999 91.4011 45.2089 91.5697 45.2239C91.9027 45.2503 92.4571 45.1829 92.5367 45.1033C92.794 44.8507 92.8003 44.8342 92.6612 44.677C92.593 44.5922 92.5233 44.4918 92.515 44.4488C92.5024 44.4023 92.4248 44.3822 92.3109 44.3976C92.1655 44.4161 92.1356 44.435 92.1876 44.4776C92.2222 44.506 92.2546 44.5903 92.2589 44.6734C92.2636 44.8003 92.2565 44.809 92.1454 44.8121C91.9941 44.8113 91.8609 44.6734 91.8652 44.5178C91.8688 44.4339 91.8463 44.4082 91.7833 44.4145C91.6808 44.4248 91.6489 44.5434 91.7356 44.6143C91.8223 44.6852 91.7435 44.8523 91.6174 44.8649C91.5228 44.8744 91.4917 44.8417 91.3995 44.636C91.316 44.4374 91.2718 44.3941 91.1619 44.3692L91.024 44.3432L91.0736 44.5213C91.1004 44.6301 91.0878 44.7428 91.0346 44.8078C90.9176 44.9508 90.799 44.8393 90.7706 44.5556C90.7474 44.363 90.7233 44.3216 90.6091 44.2932C90.4617 44.2522 90.4054 44.2857 90.4392 44.3858C90.4688 44.4823 90.3317 44.6234 90.2332 44.5935C90.1835 44.5746 90.1355 44.4918 90.124 44.4173C90.1118 44.335 90.0897 44.2735 90.074 44.2751C89.8632 44.3559 89.6689 44.443 89.6405 44.4776C89.6228 44.4993 89.6638 44.5907 89.7355 44.6711Z" fill="black"/>
<path d="M90.1749 46.0798C90.1549 46.4758 90.147 46.8745 90.1643 46.9683C90.186 47.1452 90.1978 48.2982 90.1813 49.3266C90.1782 49.6134 90.179 49.9397 90.1865 50.0544C90.2038 50.3869 90.2054 50.4027 90.1833 52.1719C90.1767 53.0998 90.1467 54.2331 90.1207 54.6893C90.0948 55.1456 90.0794 55.5889 90.0837 55.6721C90.0924 55.7588 90.0877 56.0298 90.077 56.2816C90.0349 57.3325 90.2836 58.9035 90.5945 59.5848C90.8687 60.1782 91.4614 60.7716 91.9579 60.9607C92.1896 61.049 92.2605 61.0419 92.4725 60.9331C93.1242 60.6053 93.387 59.5323 93.4184 57.0617C93.4334 55.7788 93.3778 55.0242 93.0949 52.6726C92.6921 49.362 92.6125 48.7252 92.5628 48.4675C92.5348 48.3072 92.4761 47.9191 92.4367 47.6046C92.3973 47.2902 92.3386 46.9021 92.3106 46.7417C92.2791 46.5857 92.231 46.2641 92.203 46.0242L92.1474 45.588L91.7767 45.5813C91.5737 45.5817 91.3929 45.5639 91.3755 45.5498C91.3582 45.5356 91.2699 45.5285 91.171 45.5344C91.08 45.5395 90.8294 45.5009 90.621 45.4462C90.4082 45.3878 90.2293 45.35 90.2222 45.3587C90.2187 45.363 90.1958 45.6916 90.1749 46.0798ZM91.8709 47.9159C92.0009 47.9427 92.09 48.1169 92.0155 48.2079C91.941 48.2989 91.757 48.2497 91.705 48.1275C91.6479 47.9939 91.7294 47.8942 91.8709 47.9159ZM91.9674 48.8415C92.2228 49.0866 92.2543 49.163 92.1597 49.2521C92.0908 49.3187 92.0305 49.3128 91.9194 49.2363C91.7145 49.0976 91.6439 48.9097 91.757 48.8068C91.8295 48.7359 91.8705 48.7477 91.9674 48.8415ZM92.0045 50.0078C92.0912 50.0787 92.1885 50.1367 92.2236 50.1292C92.3777 50.1177 92.438 50.2828 92.4273 50.6938C92.4112 51.1292 92.4021 52.0335 92.4057 52.4272C92.4088 52.5383 92.4321 52.9697 92.4609 53.3768C92.4896 53.7838 92.5275 54.4009 92.5377 54.7421C92.5523 55.0869 92.63 56.0621 92.7151 56.9132C92.8704 58.4657 92.8838 59.0772 92.7632 59.3838C92.7289 59.4787 92.5725 59.7053 92.4192 59.8838C92.0694 60.2849 91.8471 60.3708 91.6174 60.1829C91.496 60.0836 91.4799 60.0414 91.5386 59.952C91.5796 59.8842 91.6253 59.8637 91.6643 59.8957C91.8203 60.0233 92.2128 59.7294 92.3787 59.3586L92.4772 59.1497L92.1938 58.9035C91.9149 58.6608 91.8361 58.5094 91.9247 58.4011C91.9602 58.3577 92.0437 58.3971 92.2388 58.5567L92.5032 58.773L92.4988 58.5307C92.498 58.3636 92.4563 58.2643 92.3644 58.182C92.1469 57.9968 91.7683 57.5929 91.6599 57.4247C91.5661 57.2828 91.5827 57.0504 91.6894 57.0437C91.7131 57.0413 91.8794 57.1918 92.0567 57.3731C92.2348 57.5622 92.3967 57.7092 92.4125 57.7076C92.4326 57.7095 92.4322 57.5862 92.4172 57.4365C92.3979 57.2036 92.3542 57.1244 92.0992 56.8435C91.8979 56.6209 91.8041 56.479 91.7974 56.3722C91.7927 56.2453 91.8068 56.228 91.8872 56.2359C91.9396 56.2426 92.0638 56.3297 92.1579 56.4357L92.3317 56.6212L92.3006 56.2702C92.2734 55.9585 92.247 55.8935 92.0429 55.6831C91.7808 55.4108 91.7162 55.2421 91.8517 55.1649C91.9231 55.122 91.9692 55.1452 92.0763 55.2618L92.2068 55.412L92.1965 54.9911C92.176 54.3087 92.1583 54.2507 91.8281 53.8938C91.4833 53.5104 91.3454 53.2456 91.4557 53.155C91.5404 53.0868 91.6992 53.2022 91.9163 53.5029C91.9904 53.6069 92.0621 53.6873 92.0779 53.6857C92.098 53.6877 92.1055 53.484 92.0976 53.246L92.085 52.8015L91.7071 52.4055C91.3205 52.0024 91.1944 51.7763 91.2902 51.6592C91.3788 51.5509 91.5029 51.6379 91.7339 51.9571C91.8544 52.1281 91.9754 52.2633 91.999 52.2609C92.0621 52.2546 92.0534 51.5311 91.9927 51.4815C91.9624 51.4567 91.8848 51.357 91.815 51.2565C91.7228 51.1304 91.7078 51.0603 91.761 50.9953C91.8 50.9476 91.8694 50.9247 91.9147 50.9401C92.1038 51.0008 92.1476 50.682 91.9852 50.4913C91.7287 50.1946 91.6641 50.026 91.7744 49.9353C91.8264 49.8983 91.8962 49.9192 92.0045 50.0078Z" fill="black"/>
<path d="M27.3574 63.6152C28.2324 63.6152 29.0625 63.7695 29.8477 64.0781L30.0645 64.166L29.6016 65.4316L29.3789 65.3555C28.6211 65.1016 27.9355 64.9746 27.3223 64.9746C26.8379 64.9746 26.3887 65.0547 25.9746 65.2148C25.5645 65.3711 25.2227 65.582 24.9492 65.8477C24.6797 66.1133 24.4688 66.418 24.3164 66.7617C24.168 67.1055 24.0938 67.4648 24.0938 67.8398C24.0938 68.2266 24.1738 68.5957 24.334 68.9473C24.498 69.2949 24.7246 69.6016 25.0137 69.8672C25.3066 70.1289 25.6738 70.3379 26.1152 70.4941C26.5566 70.6465 27.0391 70.7227 27.5625 70.7227C28.2031 70.7227 28.8438 70.6094 29.4844 70.3828L29.7012 70.3066L30.1816 71.4785L29.9648 71.5723C29.1172 71.9355 28.2227 72.1172 27.2812 72.1172C26.5508 72.1172 25.8867 72.0059 25.2891 71.7832C24.6953 71.5605 24.2051 71.2559 23.8184 70.8691C23.4316 70.4785 23.1328 70.0254 22.9219 69.5098C22.7148 68.9941 22.6113 68.4395 22.6113 67.8457C22.6113 67.2441 22.7188 66.6855 22.9336 66.1699C23.1484 65.6543 23.4551 65.207 23.8535 64.8281C24.252 64.4492 24.752 64.1523 25.3535 63.9375C25.9551 63.7227 26.623 63.6152 27.3574 63.6152ZM36.3668 66.0996C36.7887 66.0996 37.1578 66.1387 37.4742 66.2168C37.7945 66.291 38.0523 66.3906 38.2477 66.5156C38.443 66.6406 38.6012 66.7969 38.7223 66.9844C38.8434 67.1719 38.9254 67.3633 38.9684 67.5586C39.0152 67.75 39.0387 67.9648 39.0387 68.2031V72H37.9605L37.7965 71.6191C37.277 71.9512 36.6852 72.1172 36.0211 72.1172C35.2984 72.1172 34.7125 71.9473 34.2633 71.6074C33.8141 71.2676 33.5895 70.8652 33.5895 70.4004C33.5895 70.1113 33.6617 69.8594 33.8062 69.6445C33.9547 69.4297 34.148 69.2578 34.3863 69.1289C34.6246 69 34.9234 68.8945 35.2828 68.8125C35.6422 68.7305 36.0016 68.6738 36.3609 68.6426C36.7242 68.6113 37.1344 68.5938 37.5914 68.5898V68.3906C37.5914 68.2422 37.5777 68.1191 37.5504 68.0215C37.527 67.9238 37.4723 67.8203 37.3863 67.7109C37.3004 67.6016 37.1559 67.5195 36.9527 67.4648C36.7535 67.4062 36.4977 67.377 36.1852 67.377C35.7477 67.377 35.1676 67.4629 34.4449 67.6348L34.2105 67.6992L33.9117 66.5449L34.1168 66.4746C34.8395 66.2246 35.5895 66.0996 36.3668 66.0996ZM37.5914 70.5059V69.6797H37.4508C36.6617 69.6797 36.0738 69.7266 35.6871 69.8203C35.3043 69.9141 35.1129 70.0723 35.1129 70.2949C35.1129 70.4355 35.2301 70.5684 35.4645 70.6934C35.6988 70.8184 35.9859 70.8809 36.3258 70.8809C36.8062 70.8809 37.2281 70.7559 37.5914 70.5059ZM47.4094 71.8945C46.8352 72.043 46.3547 72.1172 45.968 72.1172C45.5969 72.1172 45.2766 72.0801 45.007 72.0059C44.7414 71.9316 44.5324 71.8379 44.3801 71.7246C44.2277 71.6074 44.1066 71.459 44.0168 71.2793C43.9309 71.0957 43.8742 70.918 43.8469 70.7461C43.8195 70.5742 43.8059 70.373 43.8059 70.1426V67.4473H42.9094V66.2109H43.8059V64.5527H45.2473V66.2109H47.3742V67.4473H45.2473V70.043C45.2473 70.1406 45.2629 70.2344 45.2941 70.3242C45.3293 70.4141 45.384 70.5039 45.4582 70.5938C45.5324 70.6836 45.6437 70.7559 45.7922 70.8105C45.9406 70.8613 46.1164 70.8867 46.3195 70.8867C46.425 70.8867 46.7102 70.8477 47.175 70.7695L47.4035 70.7285L47.632 71.8359L47.4094 71.8945ZM54.5203 66.0996C54.8563 66.0996 55.157 66.1367 55.4227 66.2109C55.6922 66.2812 55.9129 66.373 56.0848 66.4863C56.2605 66.5957 56.4109 66.7402 56.5359 66.9199C56.6648 67.0957 56.7625 67.2656 56.8289 67.4297C56.8953 67.5898 56.9461 67.7832 56.9813 68.0098C57.0203 68.2363 57.0438 68.4277 57.0516 68.584C57.0594 68.7402 57.0633 68.9258 57.0633 69.1406V69.7969H52.7098C52.7918 70.0859 53.0242 70.3379 53.407 70.5527C53.7898 70.7637 54.2938 70.8691 54.9188 70.8691C55.3602 70.8691 55.8094 70.8027 56.2664 70.6699L56.5066 70.5996L56.7938 71.7129L56.5828 71.7832C55.9305 72.0059 55.2352 72.1172 54.4969 72.1172C53.9813 72.1172 53.5242 72.0605 53.1258 71.9473C52.7273 71.834 52.407 71.6875 52.1648 71.5078C51.9266 71.3281 51.7293 71.1113 51.573 70.8574C51.4207 70.6035 51.3152 70.3496 51.2566 70.0957C51.198 69.8418 51.1688 69.5703 51.1688 69.2812C51.1688 68.8516 51.2293 68.459 51.3504 68.1035C51.4754 67.7441 51.6434 67.4434 51.8543 67.2012C52.0691 66.9551 52.3191 66.748 52.6043 66.5801C52.8934 66.4121 53.198 66.291 53.5184 66.2168C53.8387 66.1387 54.1727 66.0996 54.5203 66.0996ZM54.2801 67.4121C53.8309 67.4121 53.4715 67.5254 53.202 67.752C52.9324 67.9746 52.7723 68.2539 52.7215 68.5898H55.6453C55.6141 68.168 55.4813 67.8672 55.2469 67.6875C55.0125 67.5039 54.6902 67.4121 54.2801 67.4121ZM62.4105 66.5215C63.0199 66.2402 63.6703 66.0996 64.3617 66.0996C64.8031 66.0996 65.2055 66.1836 65.5687 66.3516L65.7738 66.4453L65.3168 67.6465L65.0883 67.5586C64.8148 67.4531 64.518 67.4004 64.1977 67.4004C63.6859 67.4004 63.1937 67.4922 62.7211 67.6758V72H61.2797V66.2109H62.2406L62.4105 66.5215ZM69.1465 63.6738H70.7637V65.2617H69.1465V63.6738ZM69.2344 66.2109H70.6758V72H69.2344V66.2109ZM75.1852 66.2109H76.193L76.3922 66.6094C77.1969 66.2656 77.9449 66.0938 78.6363 66.0938C79.0113 66.0938 79.3355 66.1445 79.609 66.2461C79.8824 66.3477 80.0973 66.4746 80.2535 66.627C80.4098 66.7793 80.5328 66.9727 80.6227 67.207C80.7164 67.4375 80.777 67.6582 80.8043 67.8691C80.8316 68.0801 80.8453 68.3184 80.8453 68.584V72H79.4039V68.6016C79.4039 68.4922 79.398 68.3984 79.3863 68.3203C79.3785 68.2383 79.3512 68.1387 79.3043 68.0215C79.2574 67.9004 79.193 67.8027 79.1109 67.7285C79.0289 67.6504 78.9039 67.584 78.7359 67.5293C78.5719 67.4707 78.3766 67.4414 78.15 67.4414C77.693 67.4414 77.1852 67.5488 76.6266 67.7637V72H75.1852V66.2109ZM88.2785 66.0938C88.7863 66.0938 89.3352 66.2168 89.925 66.4629L90.0129 66.2109H91.0969V72.123C91.0969 72.3301 91.0832 72.5293 91.0559 72.7207C91.0285 72.916 90.9797 73.1172 90.9094 73.3242C90.8391 73.5312 90.7492 73.7227 90.6398 73.8984C90.5305 74.0742 90.3879 74.2422 90.2121 74.4023C90.0402 74.5625 89.841 74.6973 89.6145 74.8066C89.3879 74.9199 89.1164 75.0078 88.8 75.0703C88.4875 75.1367 88.1418 75.1699 87.7629 75.1699C87.0207 75.1699 86.3137 75.0391 85.6418 74.7773L85.425 74.6836L85.8645 73.5469L86.1047 73.6348C86.6164 73.8027 87.1203 73.8867 87.6164 73.8867C87.9602 73.8867 88.257 73.8457 88.507 73.7637C88.7609 73.6855 88.9602 73.584 89.1047 73.459C89.2492 73.3379 89.3645 73.1855 89.4504 73.002C89.5363 72.8184 89.591 72.6406 89.6145 72.4688C89.6418 72.3008 89.6555 72.1133 89.6555 71.9062V71.8535C89.1633 72.0293 88.6691 72.1172 88.173 72.1172C87.8605 72.1172 87.5598 72.084 87.2707 72.0176C86.9816 71.9551 86.7004 71.8477 86.427 71.6953C86.1535 71.543 85.9152 71.3555 85.7121 71.1328C85.5129 70.9062 85.3527 70.6211 85.2316 70.2773C85.1105 69.9336 85.05 69.5488 85.05 69.123C85.05 68.6816 85.1203 68.2832 85.2609 67.9277C85.4055 67.5723 85.5891 67.2832 85.8117 67.0605C86.0383 66.8379 86.298 66.6523 86.591 66.5039C86.884 66.3516 87.1691 66.2461 87.4465 66.1875C87.7277 66.125 88.0051 66.0938 88.2785 66.0938ZM88.3488 67.3535C87.802 67.3535 87.3625 67.5059 87.0305 67.8105C86.7023 68.1113 86.5383 68.5156 86.5383 69.0234C86.5383 69.5547 86.7062 69.9922 87.0422 70.3359C87.3781 70.6758 87.8586 70.8457 88.4836 70.8457C88.8742 70.8457 89.2648 70.7754 89.6555 70.6348V67.5762C89.1477 67.4277 88.7121 67.3535 88.3488 67.3535Z" fill="black"/>
<defs>
<clipPath id="clip0_500_2">
<rect width="44" height="40" fill="white" transform="translate(36 17)"/>
</clipPath>
</defs>
</svg>
