<svg width="33" height="37" viewBox="0 0 33 37" fill="none" xmlns="http://www.w3.org/2000/svg">
<path d="M31.3119 29.024L28.3339 26.1969C26.826 24.7657 24.5134 24.6288 22.8574 25.8681C22.1807 26.3746 21.5654 26.8772 21.2306 27.2376C21.2036 27.2668 21.1719 27.2884 21.1382 27.3071C21.1324 27.3102 21.1275 27.3148 21.1215 27.3176C21.006 27.3737 20.8557 27.3751 20.6767 27.3289L20.6737 27.3281C18.9736 26.8863 14.7318 22.2524 13.8392 21.1229C12.7682 19.8738 8.04176 13.4496 9.25626 12.6949C9.67441 12.4354 10.2855 11.9277 10.9122 11.3604C12.4453 9.97236 12.7547 7.67588 11.6391 5.92119L9.43604 2.45571C9.26537 2.18713 9.06037 1.95066 8.84116 1.7315C8.82578 1.71602 8.81043 1.70028 8.79476 1.68498C8.6916 1.58497 8.58562 1.49047 8.47369 1.40199C8.4534 1.38575 8.43241 1.37133 8.41181 1.35554C8.04441 1.07549 7.63736 0.856854 7.20262 0.708573L7.20053 0.707893C7.05298 0.65744 6.90293 0.617789 6.75041 0.58362C6.74089 0.581663 6.73108 0.57934 6.7215 0.577376C6.22989 0.471886 5.7185 0.442051 5.20391 0.519302C3.8544 0.721456 2.68165 1.55765 2.06814 2.77612C1.29974 4.30201 0.423619 6.48931 0.460944 8.47488C0.46284 8.56353 0.480941 8.67031 0.490023 8.76703C0.491258 8.7811 0.492602 8.79545 0.494139 8.80989C0.823836 12.0322 4.99384 19.4284 8.22698 23.7882C8.26945 23.8457 8.31125 23.9017 8.35336 23.9579C8.42694 24.0561 8.50295 24.1621 8.57556 24.257L8.56798 24.2617C8.7263 24.469 9.57604 25.5008 9.74915 25.6962L9.75504 25.6894C13.3257 29.7215 20.1512 35.6078 23.362 36.5838C23.3765 36.5884 23.3906 36.5925 23.4052 36.5968C23.4979 36.6242 23.5989 36.6624 23.6853 36.681C25.6265 37.0986 27.9405 36.6578 29.5852 36.196C30.8984 35.8271 31.9437 34.8361 32.4007 33.5502C32.9648 31.9634 32.5377 30.188 31.3119 29.024Z" fill="black"/>
</svg>
